G75*
%MOIN*%
%OFA0B0*%
%FSLAX25Y25*%
%IPPOS*%
%LPD*%
%AMOC8*
5,1,8,0,0,1.08239X$1,22.5*
%
%ADD10C,0.00500*%
%ADD11C,0.00600*%
%ADD12C,0.00000*%
D10*
X0017648Y0011537D02*
X0019983Y0011537D01*
X0017648Y0013873D01*
X0017648Y0014457D01*
X0018231Y0015040D01*
X0019399Y0015040D01*
X0019983Y0014457D01*
X0021331Y0015040D02*
X0023666Y0015040D01*
X0023666Y0013289D01*
X0022498Y0013873D01*
X0021915Y0013873D01*
X0021331Y0013289D01*
X0021331Y0012121D01*
X0021915Y0011537D01*
X0023082Y0011537D01*
X0023666Y0012121D01*
X0024894Y0011537D02*
X0024894Y0015040D01*
X0026242Y0014457D02*
X0026242Y0013873D01*
X0028577Y0011537D01*
X0026242Y0011537D01*
X0026242Y0014457D02*
X0026825Y0015040D01*
X0027993Y0015040D01*
X0028577Y0014457D01*
X0029925Y0014457D02*
X0029925Y0012121D01*
X0030509Y0011537D01*
X0031676Y0011537D01*
X0032260Y0012121D01*
X0031676Y0013289D02*
X0029925Y0013289D01*
X0029925Y0014457D02*
X0030509Y0015040D01*
X0031676Y0015040D01*
X0032260Y0014457D01*
X0032260Y0013873D01*
X0031676Y0013289D01*
X0033488Y0015040D02*
X0033488Y0011537D01*
X0034836Y0012121D02*
X0035419Y0011537D01*
X0036587Y0011537D01*
X0037171Y0012121D01*
X0036003Y0013289D02*
X0035419Y0013289D01*
X0034836Y0012705D01*
X0034836Y0012121D01*
X0035419Y0013289D02*
X0034836Y0013873D01*
X0034836Y0014457D01*
X0035419Y0015040D01*
X0036587Y0015040D01*
X0037171Y0014457D01*
X0038519Y0014457D02*
X0038519Y0012121D01*
X0039103Y0011537D01*
X0040270Y0011537D01*
X0040854Y0012121D01*
X0040270Y0013289D02*
X0038519Y0013289D01*
X0038519Y0014457D02*
X0039103Y0015040D01*
X0040270Y0015040D01*
X0040854Y0014457D01*
X0040854Y0013873D01*
X0040270Y0013289D01*
X0042082Y0015040D02*
X0042082Y0011537D01*
X0044013Y0011537D02*
X0044013Y0015040D01*
X0045765Y0013289D01*
X0043430Y0013289D01*
X0044013Y0017538D02*
X0045181Y0017538D01*
X0045765Y0018121D01*
X0047113Y0019289D02*
X0049448Y0019289D01*
X0047697Y0021040D01*
X0047697Y0017538D01*
X0047697Y0015040D02*
X0047113Y0014457D01*
X0047113Y0012121D01*
X0047697Y0011537D01*
X0048864Y0011537D01*
X0049448Y0012121D01*
X0048864Y0013289D02*
X0047113Y0013289D01*
X0047697Y0015040D02*
X0048864Y0015040D01*
X0049448Y0014457D01*
X0049448Y0013873D01*
X0048864Y0013289D01*
X0050676Y0015040D02*
X0050676Y0011537D01*
X0052024Y0012121D02*
X0052024Y0012705D01*
X0052607Y0013289D01*
X0054359Y0013289D01*
X0054359Y0012121D01*
X0053775Y0011537D01*
X0052607Y0011537D01*
X0052024Y0012121D01*
X0054359Y0013289D02*
X0053191Y0014457D01*
X0052024Y0015040D01*
X0050676Y0017538D02*
X0050676Y0021040D01*
X0052024Y0021040D02*
X0052024Y0020457D01*
X0054359Y0018121D01*
X0054359Y0017538D01*
X0056291Y0017538D02*
X0056291Y0021040D01*
X0058042Y0019289D01*
X0055707Y0019289D01*
X0054359Y0021040D02*
X0052024Y0021040D01*
X0052024Y0023537D02*
X0054359Y0023537D01*
X0053191Y0023537D02*
X0053191Y0027040D01*
X0054359Y0025873D01*
X0050676Y0027040D02*
X0050676Y0023537D01*
X0045765Y0023537D02*
X0043430Y0025873D01*
X0043430Y0026457D01*
X0044013Y0027040D01*
X0045181Y0027040D01*
X0045765Y0026457D01*
X0045765Y0023537D02*
X0043430Y0023537D01*
X0042082Y0023537D02*
X0042082Y0027040D01*
X0042082Y0021040D02*
X0042082Y0017538D01*
X0043430Y0018121D02*
X0044013Y0017538D01*
X0043430Y0018121D02*
X0043430Y0018705D01*
X0044013Y0019289D01*
X0044597Y0019289D01*
X0044013Y0019289D02*
X0043430Y0019873D01*
X0043430Y0020457D01*
X0044013Y0021040D01*
X0045181Y0021040D01*
X0045765Y0020457D01*
X0040854Y0019289D02*
X0038519Y0019289D01*
X0039103Y0021040D02*
X0040854Y0019289D01*
X0039103Y0017538D02*
X0039103Y0021040D01*
X0037171Y0019289D02*
X0034836Y0019289D01*
X0035419Y0021040D02*
X0037171Y0019289D01*
X0035419Y0017538D02*
X0035419Y0021040D01*
X0035419Y0023537D02*
X0036587Y0023537D01*
X0037171Y0024121D01*
X0036003Y0025289D02*
X0035419Y0025289D01*
X0034836Y0024705D01*
X0034836Y0024121D01*
X0035419Y0023537D01*
X0035419Y0025289D02*
X0034836Y0025873D01*
X0034836Y0026457D01*
X0035419Y0027040D01*
X0036587Y0027040D01*
X0037171Y0026457D01*
X0033488Y0027040D02*
X0033488Y0023537D01*
X0033488Y0021040D02*
X0033488Y0017538D01*
X0032260Y0019289D02*
X0029925Y0019289D01*
X0030509Y0021040D02*
X0032260Y0019289D01*
X0030509Y0017538D02*
X0030509Y0021040D01*
X0028577Y0020457D02*
X0027993Y0021040D01*
X0026825Y0021040D01*
X0026242Y0020457D01*
X0026242Y0019873D01*
X0028577Y0017538D01*
X0026242Y0017538D01*
X0024894Y0017538D02*
X0024894Y0021040D01*
X0023666Y0021040D02*
X0021331Y0021040D01*
X0021331Y0020457D01*
X0023666Y0018121D01*
X0023666Y0017538D01*
X0019983Y0018121D02*
X0019983Y0018705D01*
X0019399Y0019289D01*
X0018231Y0019289D01*
X0017648Y0018705D01*
X0017648Y0018121D01*
X0018231Y0017538D01*
X0019399Y0017538D01*
X0019983Y0018121D01*
X0019399Y0019289D02*
X0019983Y0019873D01*
X0019983Y0020457D01*
X0019399Y0021040D01*
X0018231Y0021040D01*
X0017648Y0020457D01*
X0017648Y0019873D01*
X0018231Y0019289D01*
X0018231Y0023537D02*
X0019399Y0023537D01*
X0019983Y0024121D01*
X0019983Y0025289D02*
X0018815Y0025873D01*
X0018231Y0025873D01*
X0017648Y0025289D01*
X0017648Y0024121D01*
X0018231Y0023537D01*
X0019983Y0025289D02*
X0019983Y0027040D01*
X0017648Y0027040D01*
X0024894Y0027040D02*
X0024894Y0023537D01*
X0026825Y0023537D02*
X0026825Y0027040D01*
X0028577Y0025289D01*
X0026242Y0025289D01*
X0026434Y0048100D02*
X0025266Y0048100D01*
X0025850Y0048100D02*
X0025850Y0050435D01*
X0026434Y0050435D01*
X0025850Y0051603D02*
X0025850Y0052187D01*
X0027782Y0050435D02*
X0029533Y0050435D01*
X0030117Y0049851D01*
X0029533Y0049268D01*
X0028366Y0049268D01*
X0027782Y0048684D01*
X0028366Y0048100D01*
X0030117Y0048100D01*
X0031435Y0050435D02*
X0032019Y0050435D01*
X0033186Y0049268D01*
X0033186Y0050435D02*
X0033186Y0048100D01*
X0034534Y0049268D02*
X0036870Y0049268D01*
X0036870Y0049851D02*
X0036286Y0050435D01*
X0035118Y0050435D01*
X0034534Y0049851D01*
X0034534Y0049268D01*
X0035118Y0048100D02*
X0036286Y0048100D01*
X0036870Y0048684D01*
X0036870Y0049851D01*
X0038217Y0050435D02*
X0039385Y0048100D01*
X0040553Y0050435D01*
X0045524Y0050435D02*
X0046691Y0050435D01*
X0046108Y0051019D02*
X0046108Y0048684D01*
X0045524Y0048100D01*
X0048039Y0048100D02*
X0048039Y0050435D01*
X0048039Y0048100D02*
X0049791Y0048100D01*
X0050374Y0048684D01*
X0050374Y0050435D01*
X0051722Y0049851D02*
X0051722Y0048684D01*
X0052306Y0048100D01*
X0054058Y0048100D01*
X0054058Y0046932D02*
X0054058Y0050435D01*
X0052306Y0050435D01*
X0051722Y0049851D01*
X0055345Y0050435D02*
X0056513Y0050435D01*
X0055929Y0051019D02*
X0055929Y0048684D01*
X0055345Y0048100D01*
X0057861Y0048100D02*
X0057861Y0050435D01*
X0057861Y0048100D02*
X0059612Y0048100D01*
X0060196Y0048684D01*
X0060196Y0050435D01*
X0061544Y0049851D02*
X0061544Y0048684D01*
X0062128Y0048100D01*
X0063296Y0048100D01*
X0063879Y0048684D01*
X0063879Y0049851D01*
X0063296Y0050435D01*
X0062128Y0050435D01*
X0061544Y0049851D01*
X0065227Y0049851D02*
X0067562Y0049851D01*
X0068910Y0049851D02*
X0071246Y0049851D01*
X0071246Y0050435D02*
X0071246Y0048100D01*
X0072593Y0048684D02*
X0073177Y0048100D01*
X0074345Y0048100D01*
X0074929Y0048684D01*
X0074929Y0051019D01*
X0074345Y0051603D01*
X0073177Y0051603D01*
X0072593Y0051019D01*
X0071246Y0050435D02*
X0070078Y0051603D01*
X0068910Y0050435D01*
X0068910Y0048100D01*
X0072473Y0054100D02*
X0072473Y0056435D01*
X0072473Y0055268D02*
X0071306Y0056435D01*
X0070722Y0056435D01*
X0070722Y0058932D02*
X0070138Y0059516D01*
X0070138Y0062435D01*
X0071890Y0062435D01*
X0072473Y0061851D01*
X0072473Y0060684D01*
X0071890Y0060100D01*
X0070138Y0060100D01*
X0070722Y0058932D02*
X0071306Y0058932D01*
X0073761Y0060100D02*
X0074929Y0060100D01*
X0074345Y0060100D02*
X0074345Y0062435D01*
X0074929Y0062435D01*
X0074345Y0063603D02*
X0074345Y0064187D01*
X0076277Y0063019D02*
X0076860Y0063603D01*
X0078612Y0063603D01*
X0078612Y0060100D01*
X0076860Y0060100D01*
X0076277Y0060684D01*
X0076277Y0063019D01*
X0077444Y0057603D02*
X0078028Y0057019D01*
X0078028Y0054100D01*
X0078612Y0055851D02*
X0077444Y0055851D01*
X0076156Y0055851D02*
X0076156Y0054684D01*
X0075573Y0054100D01*
X0074405Y0054100D01*
X0073821Y0054684D01*
X0073821Y0055851D01*
X0074405Y0056435D01*
X0075573Y0056435D01*
X0076156Y0055851D01*
X0076860Y0051603D02*
X0076277Y0051019D01*
X0076277Y0049851D01*
X0076860Y0049268D01*
X0078612Y0049268D01*
X0077444Y0049268D02*
X0076277Y0048100D01*
X0078612Y0048100D02*
X0078612Y0051603D01*
X0076860Y0051603D01*
X0068790Y0060100D02*
X0067623Y0060100D01*
X0068206Y0060100D02*
X0068206Y0062435D01*
X0068790Y0062435D01*
X0068206Y0063603D02*
X0068206Y0064187D01*
X0066335Y0062435D02*
X0065167Y0062435D01*
X0065751Y0063019D02*
X0065751Y0060684D01*
X0065167Y0060100D01*
X0063879Y0060684D02*
X0063296Y0061268D01*
X0061544Y0061268D01*
X0061544Y0061851D02*
X0061544Y0060100D01*
X0063296Y0060100D01*
X0063879Y0060684D01*
X0063296Y0062435D02*
X0062128Y0062435D01*
X0061544Y0061851D01*
X0060196Y0060100D02*
X0059029Y0060100D01*
X0059612Y0060100D02*
X0059612Y0063603D01*
X0060196Y0063603D01*
X0059702Y0057603D02*
X0059702Y0054100D01*
X0062038Y0057603D01*
X0062038Y0054100D01*
X0063386Y0054684D02*
X0063969Y0054100D01*
X0065137Y0054100D01*
X0065721Y0054684D01*
X0065137Y0055851D02*
X0063969Y0055851D01*
X0063386Y0055268D01*
X0063386Y0054684D01*
X0065137Y0055851D02*
X0065721Y0056435D01*
X0065721Y0057019D01*
X0065137Y0057603D01*
X0063969Y0057603D01*
X0063386Y0057019D01*
X0058355Y0057603D02*
X0058355Y0054100D01*
X0056019Y0054100D01*
X0057187Y0055851D02*
X0058355Y0055851D01*
X0058355Y0057603D02*
X0056019Y0057603D01*
X0054671Y0057019D02*
X0054671Y0056435D01*
X0054088Y0055851D01*
X0052920Y0055851D01*
X0052336Y0055268D01*
X0052336Y0054684D01*
X0052920Y0054100D01*
X0054088Y0054100D01*
X0054671Y0054684D01*
X0054671Y0057019D02*
X0054088Y0057603D01*
X0052920Y0057603D01*
X0052336Y0057019D01*
X0051722Y0060100D02*
X0051722Y0062435D01*
X0052890Y0063603D01*
X0054058Y0062435D01*
X0054058Y0060100D01*
X0054058Y0061851D02*
X0051722Y0061851D01*
X0050374Y0062435D02*
X0050374Y0060684D01*
X0049791Y0060100D01*
X0048039Y0060100D01*
X0048039Y0062435D01*
X0046691Y0061851D02*
X0046108Y0062435D01*
X0044356Y0062435D01*
X0044356Y0063603D02*
X0044356Y0060100D01*
X0046108Y0060100D01*
X0046691Y0060684D01*
X0046691Y0061851D01*
X0043008Y0062435D02*
X0042424Y0062435D01*
X0042424Y0060100D01*
X0041841Y0060100D02*
X0043008Y0060100D01*
X0040553Y0060684D02*
X0039969Y0060100D01*
X0038801Y0060100D01*
X0038217Y0060684D01*
X0038217Y0061851D01*
X0038801Y0062435D01*
X0039969Y0062435D01*
X0040553Y0061851D01*
X0040553Y0060684D01*
X0042424Y0063603D02*
X0042424Y0064187D01*
X0023979Y0049851D02*
X0023979Y0048684D01*
X0023395Y0048100D01*
X0022227Y0048100D01*
X0021643Y0048684D01*
X0021643Y0049851D01*
X0022227Y0050435D01*
X0023395Y0050435D01*
X0023979Y0049851D01*
X0020295Y0050435D02*
X0020295Y0048100D01*
X0017960Y0048100D02*
X0017960Y0049851D01*
X0018544Y0050435D01*
X0020295Y0050435D01*
X0053161Y0034498D02*
X0053161Y0033914D01*
X0053745Y0033914D01*
X0053745Y0034498D01*
X0053161Y0034498D01*
X0053161Y0032746D02*
X0053161Y0032162D01*
X0053745Y0032162D01*
X0053745Y0032746D01*
X0053161Y0032746D01*
X0055093Y0032162D02*
X0056844Y0032162D01*
X0057428Y0032746D01*
X0057428Y0033914D01*
X0056844Y0034498D01*
X0055093Y0034498D01*
X0055093Y0031579D01*
X0055677Y0030995D01*
X0056261Y0030995D01*
X0058776Y0032162D02*
X0058776Y0033914D01*
X0059360Y0034498D01*
X0061111Y0034498D01*
X0061111Y0032162D01*
X0062399Y0032162D02*
X0063567Y0032162D01*
X0062983Y0032162D02*
X0062983Y0034498D01*
X0063567Y0034498D01*
X0062983Y0035665D02*
X0062983Y0036249D01*
X0064915Y0033914D02*
X0064915Y0032746D01*
X0065498Y0032162D01*
X0067250Y0032162D01*
X0067250Y0030995D02*
X0067250Y0034498D01*
X0065498Y0034498D01*
X0064915Y0033914D01*
X0068598Y0033914D02*
X0068598Y0032746D01*
X0069182Y0032162D01*
X0070933Y0032162D01*
X0070933Y0030995D02*
X0070933Y0034498D01*
X0069182Y0034498D01*
X0068598Y0033914D01*
X0072281Y0033914D02*
X0072281Y0032162D01*
X0074032Y0032162D01*
X0074616Y0032746D01*
X0074032Y0033330D01*
X0072281Y0033330D01*
X0072281Y0033914D02*
X0072865Y0034498D01*
X0074032Y0034498D01*
X0075964Y0035665D02*
X0075964Y0032162D01*
X0077132Y0034498D02*
X0075964Y0035665D01*
X0077132Y0034498D02*
X0078299Y0035665D01*
X0078299Y0032162D01*
X0070933Y0027040D02*
X0070933Y0023537D01*
X0070933Y0024705D02*
X0069182Y0024705D01*
X0068598Y0025289D01*
X0068598Y0026457D01*
X0069182Y0027040D01*
X0070933Y0027040D01*
X0067250Y0024121D02*
X0066666Y0024705D01*
X0064915Y0024705D01*
X0064915Y0025289D02*
X0064915Y0023537D01*
X0066666Y0023537D01*
X0067250Y0024121D01*
X0066666Y0025873D02*
X0065498Y0025873D01*
X0064915Y0025289D01*
X0063567Y0025289D02*
X0063567Y0024121D01*
X0062983Y0023537D01*
X0061232Y0023537D01*
X0061232Y0027040D01*
X0061232Y0025873D02*
X0062983Y0025873D01*
X0063567Y0025289D01*
X0059884Y0025289D02*
X0059884Y0025873D01*
X0059300Y0025873D01*
X0059300Y0025289D01*
X0059884Y0025289D01*
X0059884Y0024121D02*
X0059300Y0024121D01*
X0059300Y0023537D01*
X0059884Y0023537D01*
X0059884Y0024121D01*
X0061815Y0021040D02*
X0061232Y0020457D01*
X0061232Y0019289D01*
X0061815Y0018705D01*
X0063567Y0018705D01*
X0063567Y0017538D02*
X0063567Y0021040D01*
X0061815Y0021040D01*
X0059884Y0019873D02*
X0059884Y0019289D01*
X0059300Y0019289D01*
X0059300Y0019873D01*
X0059884Y0019873D01*
X0059884Y0018121D02*
X0059300Y0018121D01*
X0059300Y0017538D01*
X0059884Y0017538D01*
X0059884Y0018121D01*
X0061232Y0015040D02*
X0061232Y0012121D01*
X0061815Y0011537D01*
X0062983Y0011537D01*
X0063567Y0012121D01*
X0063567Y0015040D01*
X0064915Y0014457D02*
X0064915Y0013289D01*
X0065498Y0012705D01*
X0067250Y0012705D01*
X0067250Y0011537D02*
X0067250Y0015040D01*
X0065498Y0015040D01*
X0064915Y0014457D01*
X0065498Y0017538D02*
X0066666Y0017538D01*
X0067250Y0018121D01*
X0066666Y0019289D02*
X0065498Y0019289D01*
X0064915Y0018705D01*
X0064915Y0018121D01*
X0065498Y0017538D01*
X0066666Y0019289D02*
X0067250Y0019873D01*
X0067250Y0020457D01*
X0066666Y0021040D01*
X0065498Y0021040D01*
X0064915Y0020457D01*
X0068598Y0020457D02*
X0068598Y0018121D01*
X0069182Y0017538D01*
X0070933Y0017538D01*
X0070933Y0021040D01*
X0069182Y0021040D01*
X0068598Y0020457D01*
X0072281Y0019289D02*
X0074616Y0019289D01*
X0075964Y0018705D02*
X0075964Y0018121D01*
X0076548Y0017538D01*
X0077716Y0017538D01*
X0078299Y0018121D01*
X0077716Y0019289D02*
X0076548Y0019289D01*
X0075964Y0018705D01*
X0075964Y0020457D02*
X0076548Y0021040D01*
X0077716Y0021040D01*
X0078299Y0020457D01*
X0078299Y0019873D01*
X0077716Y0019289D01*
X0077716Y0015040D02*
X0076548Y0015040D01*
X0075964Y0014457D01*
X0076548Y0013289D02*
X0075964Y0012705D01*
X0075964Y0012121D01*
X0076548Y0011537D01*
X0077716Y0011537D01*
X0078299Y0012121D01*
X0077716Y0013289D02*
X0076548Y0013289D01*
X0077716Y0013289D02*
X0078299Y0013873D01*
X0078299Y0014457D01*
X0077716Y0015040D01*
X0074616Y0013289D02*
X0072281Y0013289D01*
X0070933Y0013289D02*
X0068598Y0013289D01*
X0068598Y0013873D02*
X0068598Y0011537D01*
X0068598Y0013873D02*
X0069765Y0015040D01*
X0070933Y0013873D01*
X0070933Y0011537D01*
X0059884Y0011537D02*
X0059884Y0012121D01*
X0059300Y0012121D01*
X0059300Y0011537D01*
X0059884Y0011537D01*
X0059884Y0013289D02*
X0059300Y0013289D01*
X0059300Y0013873D01*
X0059884Y0013873D01*
X0059884Y0013289D01*
X0058042Y0013873D02*
X0056874Y0015040D01*
X0056874Y0011537D01*
X0055707Y0011537D02*
X0058042Y0011537D01*
D11*
X0051674Y0030975D02*
X0078549Y0030975D01*
X0078549Y0022537D02*
X0016049Y0022537D01*
D12*
X0008237Y0004725D02*
X0009487Y0003475D01*
X0083549Y0003475D01*
X0084799Y0004725D01*
X0084799Y0104100D01*
X0083549Y0105350D01*
X0043549Y0105350D01*
X0042299Y0106600D01*
X0042299Y0107850D01*
X0041049Y0109100D01*
X0009487Y0109100D01*
X0008237Y0107850D01*
X0008237Y0004725D01*
X0059774Y0106472D02*
X0059776Y0106584D01*
X0059782Y0106695D01*
X0059792Y0106807D01*
X0059806Y0106918D01*
X0059823Y0107028D01*
X0059845Y0107138D01*
X0059871Y0107247D01*
X0059900Y0107355D01*
X0059933Y0107461D01*
X0059970Y0107567D01*
X0060011Y0107671D01*
X0060056Y0107774D01*
X0060104Y0107875D01*
X0060155Y0107974D01*
X0060210Y0108071D01*
X0060269Y0108166D01*
X0060330Y0108260D01*
X0060395Y0108351D01*
X0060464Y0108439D01*
X0060535Y0108525D01*
X0060609Y0108609D01*
X0060687Y0108689D01*
X0060767Y0108767D01*
X0060850Y0108843D01*
X0060935Y0108915D01*
X0061023Y0108984D01*
X0061113Y0109050D01*
X0061206Y0109112D01*
X0061301Y0109172D01*
X0061398Y0109228D01*
X0061496Y0109280D01*
X0061597Y0109329D01*
X0061699Y0109374D01*
X0061803Y0109416D01*
X0061908Y0109454D01*
X0062015Y0109488D01*
X0062122Y0109518D01*
X0062231Y0109545D01*
X0062340Y0109567D01*
X0062451Y0109586D01*
X0062561Y0109601D01*
X0062673Y0109612D01*
X0062784Y0109619D01*
X0062896Y0109622D01*
X0063008Y0109621D01*
X0063120Y0109616D01*
X0063231Y0109607D01*
X0063342Y0109594D01*
X0063453Y0109577D01*
X0063563Y0109557D01*
X0063672Y0109532D01*
X0063780Y0109504D01*
X0063887Y0109471D01*
X0063993Y0109435D01*
X0064097Y0109395D01*
X0064200Y0109352D01*
X0064302Y0109305D01*
X0064401Y0109254D01*
X0064499Y0109200D01*
X0064595Y0109142D01*
X0064689Y0109081D01*
X0064780Y0109017D01*
X0064869Y0108950D01*
X0064956Y0108879D01*
X0065040Y0108805D01*
X0065122Y0108729D01*
X0065200Y0108649D01*
X0065276Y0108567D01*
X0065349Y0108482D01*
X0065419Y0108395D01*
X0065485Y0108305D01*
X0065549Y0108213D01*
X0065609Y0108119D01*
X0065666Y0108023D01*
X0065719Y0107924D01*
X0065769Y0107824D01*
X0065815Y0107723D01*
X0065858Y0107619D01*
X0065897Y0107514D01*
X0065932Y0107408D01*
X0065963Y0107301D01*
X0065991Y0107192D01*
X0066014Y0107083D01*
X0066034Y0106973D01*
X0066050Y0106862D01*
X0066062Y0106751D01*
X0066070Y0106640D01*
X0066074Y0106528D01*
X0066074Y0106416D01*
X0066070Y0106304D01*
X0066062Y0106193D01*
X0066050Y0106082D01*
X0066034Y0105971D01*
X0066014Y0105861D01*
X0065991Y0105752D01*
X0065963Y0105643D01*
X0065932Y0105536D01*
X0065897Y0105430D01*
X0065858Y0105325D01*
X0065815Y0105221D01*
X0065769Y0105120D01*
X0065719Y0105020D01*
X0065666Y0104921D01*
X0065609Y0104825D01*
X0065549Y0104731D01*
X0065485Y0104639D01*
X0065419Y0104549D01*
X0065349Y0104462D01*
X0065276Y0104377D01*
X0065200Y0104295D01*
X0065122Y0104215D01*
X0065040Y0104139D01*
X0064956Y0104065D01*
X0064869Y0103994D01*
X0064780Y0103927D01*
X0064689Y0103863D01*
X0064595Y0103802D01*
X0064499Y0103744D01*
X0064401Y0103690D01*
X0064302Y0103639D01*
X0064200Y0103592D01*
X0064097Y0103549D01*
X0063993Y0103509D01*
X0063887Y0103473D01*
X0063780Y0103440D01*
X0063672Y0103412D01*
X0063563Y0103387D01*
X0063453Y0103367D01*
X0063342Y0103350D01*
X0063231Y0103337D01*
X0063120Y0103328D01*
X0063008Y0103323D01*
X0062896Y0103322D01*
X0062784Y0103325D01*
X0062673Y0103332D01*
X0062561Y0103343D01*
X0062451Y0103358D01*
X0062340Y0103377D01*
X0062231Y0103399D01*
X0062122Y0103426D01*
X0062015Y0103456D01*
X0061908Y0103490D01*
X0061803Y0103528D01*
X0061699Y0103570D01*
X0061597Y0103615D01*
X0061496Y0103664D01*
X0061398Y0103716D01*
X0061301Y0103772D01*
X0061206Y0103832D01*
X0061113Y0103894D01*
X0061023Y0103960D01*
X0060935Y0104029D01*
X0060850Y0104101D01*
X0060767Y0104177D01*
X0060687Y0104255D01*
X0060609Y0104335D01*
X0060535Y0104419D01*
X0060464Y0104505D01*
X0060395Y0104593D01*
X0060330Y0104684D01*
X0060269Y0104778D01*
X0060210Y0104873D01*
X0060155Y0104970D01*
X0060104Y0105069D01*
X0060056Y0105170D01*
X0060011Y0105273D01*
X0059970Y0105377D01*
X0059933Y0105483D01*
X0059900Y0105589D01*
X0059871Y0105697D01*
X0059845Y0105806D01*
X0059823Y0105916D01*
X0059806Y0106026D01*
X0059792Y0106137D01*
X0059782Y0106249D01*
X0059776Y0106360D01*
X0059774Y0106472D01*
M02*
