G75*
%MOIN*%
%OFA0B0*%
%FSLAX25Y25*%
%IPPOS*%
%LPD*%
%AMOC8*
5,1,8,0,0,1.08239X$1,22.5*
%
%ADD10C,0.00000*%
%ADD11C,0.13449*%
%ADD12C,0.01200*%
%ADD13C,0.02775*%
D10*
X0008237Y0004725D02*
X0009487Y0003475D01*
X0083549Y0003475D01*
X0084799Y0004725D01*
X0084799Y0104100D01*
X0083549Y0105350D01*
X0043549Y0105350D01*
X0042299Y0106600D01*
X0042299Y0107850D01*
X0041049Y0109100D01*
X0009487Y0109100D01*
X0008237Y0107850D01*
X0008237Y0004725D01*
X0059774Y0106472D02*
X0059776Y0106584D01*
X0059782Y0106695D01*
X0059792Y0106807D01*
X0059806Y0106918D01*
X0059823Y0107028D01*
X0059845Y0107138D01*
X0059871Y0107247D01*
X0059900Y0107355D01*
X0059933Y0107461D01*
X0059970Y0107567D01*
X0060011Y0107671D01*
X0060056Y0107774D01*
X0060104Y0107875D01*
X0060155Y0107974D01*
X0060210Y0108071D01*
X0060269Y0108166D01*
X0060330Y0108260D01*
X0060395Y0108351D01*
X0060464Y0108439D01*
X0060535Y0108525D01*
X0060609Y0108609D01*
X0060687Y0108689D01*
X0060767Y0108767D01*
X0060850Y0108843D01*
X0060935Y0108915D01*
X0061023Y0108984D01*
X0061113Y0109050D01*
X0061206Y0109112D01*
X0061301Y0109172D01*
X0061398Y0109228D01*
X0061496Y0109280D01*
X0061597Y0109329D01*
X0061699Y0109374D01*
X0061803Y0109416D01*
X0061908Y0109454D01*
X0062015Y0109488D01*
X0062122Y0109518D01*
X0062231Y0109545D01*
X0062340Y0109567D01*
X0062451Y0109586D01*
X0062561Y0109601D01*
X0062673Y0109612D01*
X0062784Y0109619D01*
X0062896Y0109622D01*
X0063008Y0109621D01*
X0063120Y0109616D01*
X0063231Y0109607D01*
X0063342Y0109594D01*
X0063453Y0109577D01*
X0063563Y0109557D01*
X0063672Y0109532D01*
X0063780Y0109504D01*
X0063887Y0109471D01*
X0063993Y0109435D01*
X0064097Y0109395D01*
X0064200Y0109352D01*
X0064302Y0109305D01*
X0064401Y0109254D01*
X0064499Y0109200D01*
X0064595Y0109142D01*
X0064689Y0109081D01*
X0064780Y0109017D01*
X0064869Y0108950D01*
X0064956Y0108879D01*
X0065040Y0108805D01*
X0065122Y0108729D01*
X0065200Y0108649D01*
X0065276Y0108567D01*
X0065349Y0108482D01*
X0065419Y0108395D01*
X0065485Y0108305D01*
X0065549Y0108213D01*
X0065609Y0108119D01*
X0065666Y0108023D01*
X0065719Y0107924D01*
X0065769Y0107824D01*
X0065815Y0107723D01*
X0065858Y0107619D01*
X0065897Y0107514D01*
X0065932Y0107408D01*
X0065963Y0107301D01*
X0065991Y0107192D01*
X0066014Y0107083D01*
X0066034Y0106973D01*
X0066050Y0106862D01*
X0066062Y0106751D01*
X0066070Y0106640D01*
X0066074Y0106528D01*
X0066074Y0106416D01*
X0066070Y0106304D01*
X0066062Y0106193D01*
X0066050Y0106082D01*
X0066034Y0105971D01*
X0066014Y0105861D01*
X0065991Y0105752D01*
X0065963Y0105643D01*
X0065932Y0105536D01*
X0065897Y0105430D01*
X0065858Y0105325D01*
X0065815Y0105221D01*
X0065769Y0105120D01*
X0065719Y0105020D01*
X0065666Y0104921D01*
X0065609Y0104825D01*
X0065549Y0104731D01*
X0065485Y0104639D01*
X0065419Y0104549D01*
X0065349Y0104462D01*
X0065276Y0104377D01*
X0065200Y0104295D01*
X0065122Y0104215D01*
X0065040Y0104139D01*
X0064956Y0104065D01*
X0064869Y0103994D01*
X0064780Y0103927D01*
X0064689Y0103863D01*
X0064595Y0103802D01*
X0064499Y0103744D01*
X0064401Y0103690D01*
X0064302Y0103639D01*
X0064200Y0103592D01*
X0064097Y0103549D01*
X0063993Y0103509D01*
X0063887Y0103473D01*
X0063780Y0103440D01*
X0063672Y0103412D01*
X0063563Y0103387D01*
X0063453Y0103367D01*
X0063342Y0103350D01*
X0063231Y0103337D01*
X0063120Y0103328D01*
X0063008Y0103323D01*
X0062896Y0103322D01*
X0062784Y0103325D01*
X0062673Y0103332D01*
X0062561Y0103343D01*
X0062451Y0103358D01*
X0062340Y0103377D01*
X0062231Y0103399D01*
X0062122Y0103426D01*
X0062015Y0103456D01*
X0061908Y0103490D01*
X0061803Y0103528D01*
X0061699Y0103570D01*
X0061597Y0103615D01*
X0061496Y0103664D01*
X0061398Y0103716D01*
X0061301Y0103772D01*
X0061206Y0103832D01*
X0061113Y0103894D01*
X0061023Y0103960D01*
X0060935Y0104029D01*
X0060850Y0104101D01*
X0060767Y0104177D01*
X0060687Y0104255D01*
X0060609Y0104335D01*
X0060535Y0104419D01*
X0060464Y0104505D01*
X0060395Y0104593D01*
X0060330Y0104684D01*
X0060269Y0104778D01*
X0060210Y0104873D01*
X0060155Y0104970D01*
X0060104Y0105069D01*
X0060056Y0105170D01*
X0060011Y0105273D01*
X0059970Y0105377D01*
X0059933Y0105483D01*
X0059900Y0105589D01*
X0059871Y0105697D01*
X0059845Y0105806D01*
X0059823Y0105916D01*
X0059806Y0106026D01*
X0059792Y0106137D01*
X0059782Y0106249D01*
X0059776Y0106360D01*
X0059774Y0106472D01*
D11*
X0007924Y0080350D03*
X0085112Y0039100D03*
D12*
X0083199Y0039578D02*
X0009837Y0039578D01*
X0009837Y0040776D02*
X0083199Y0040776D01*
X0083199Y0041975D02*
X0009837Y0041975D01*
X0009837Y0043173D02*
X0083199Y0043173D01*
X0083199Y0044372D02*
X0009837Y0044372D01*
X0009837Y0045570D02*
X0083199Y0045570D01*
X0083199Y0046769D02*
X0009837Y0046769D01*
X0009837Y0047967D02*
X0083199Y0047967D01*
X0083199Y0049166D02*
X0009837Y0049166D01*
X0009837Y0050364D02*
X0083199Y0050364D01*
X0083199Y0051563D02*
X0009837Y0051563D01*
X0009837Y0052761D02*
X0083199Y0052761D01*
X0083199Y0053960D02*
X0009837Y0053960D01*
X0009837Y0055158D02*
X0083199Y0055158D01*
X0083199Y0056357D02*
X0009837Y0056357D01*
X0009837Y0057555D02*
X0083199Y0057555D01*
X0083199Y0058754D02*
X0009837Y0058754D01*
X0009837Y0059952D02*
X0083199Y0059952D01*
X0083199Y0061151D02*
X0009837Y0061151D01*
X0009837Y0062349D02*
X0083199Y0062349D01*
X0083199Y0063548D02*
X0009837Y0063548D01*
X0009837Y0064746D02*
X0083199Y0064746D01*
X0083199Y0065945D02*
X0009837Y0065945D01*
X0009837Y0067143D02*
X0083199Y0067143D01*
X0083199Y0068342D02*
X0009837Y0068342D01*
X0009837Y0069540D02*
X0083199Y0069540D01*
X0083199Y0070739D02*
X0009837Y0070739D01*
X0009837Y0071937D02*
X0083199Y0071937D01*
X0083199Y0073136D02*
X0009837Y0073136D01*
X0009837Y0074334D02*
X0083199Y0074334D01*
X0083199Y0075533D02*
X0009837Y0075533D01*
X0009837Y0076732D02*
X0083199Y0076732D01*
X0083199Y0077930D02*
X0009837Y0077930D01*
X0009837Y0079129D02*
X0083199Y0079129D01*
X0083199Y0080327D02*
X0009837Y0080327D01*
X0009837Y0081526D02*
X0083199Y0081526D01*
X0083199Y0082724D02*
X0009837Y0082724D01*
X0009837Y0083923D02*
X0083199Y0083923D01*
X0083199Y0085121D02*
X0009837Y0085121D01*
X0009837Y0086320D02*
X0083199Y0086320D01*
X0083199Y0087518D02*
X0009837Y0087518D01*
X0009837Y0088717D02*
X0083199Y0088717D01*
X0083199Y0089915D02*
X0009837Y0089915D01*
X0009837Y0091114D02*
X0083199Y0091114D01*
X0083199Y0092312D02*
X0009837Y0092312D01*
X0009837Y0093511D02*
X0083199Y0093511D01*
X0083199Y0094709D02*
X0009837Y0094709D01*
X0009837Y0095908D02*
X0083199Y0095908D01*
X0083199Y0097106D02*
X0009837Y0097106D01*
X0009837Y0098305D02*
X0083199Y0098305D01*
X0083199Y0099503D02*
X0009837Y0099503D01*
X0009837Y0100702D02*
X0083199Y0100702D01*
X0083199Y0101900D02*
X0064298Y0101900D01*
X0063869Y0101722D02*
X0065615Y0102446D01*
X0066919Y0103750D01*
X0082887Y0103750D01*
X0083199Y0103437D01*
X0083199Y0005388D01*
X0082887Y0005075D01*
X0010150Y0005075D01*
X0009837Y0005388D01*
X0009837Y0106600D01*
X0040699Y0106600D01*
X0040699Y0105937D01*
X0042887Y0103750D01*
X0058929Y0103750D01*
X0060234Y0102446D01*
X0061980Y0101722D01*
X0063869Y0101722D01*
X0061550Y0101900D02*
X0009837Y0101900D01*
X0009837Y0103099D02*
X0059581Y0103099D01*
X0066268Y0103099D02*
X0083199Y0103099D01*
X0042339Y0104297D02*
X0009837Y0104297D01*
X0009837Y0105496D02*
X0041141Y0105496D01*
X0009837Y0038379D02*
X0083199Y0038379D01*
X0083199Y0037181D02*
X0009837Y0037181D01*
X0009837Y0035982D02*
X0083199Y0035982D01*
X0083199Y0034784D02*
X0009837Y0034784D01*
X0009837Y0033585D02*
X0083199Y0033585D01*
X0083199Y0032387D02*
X0009837Y0032387D01*
X0009837Y0031188D02*
X0083199Y0031188D01*
X0083199Y0029990D02*
X0009837Y0029990D01*
X0009837Y0028791D02*
X0083199Y0028791D01*
X0083199Y0027593D02*
X0009837Y0027593D01*
X0009837Y0026394D02*
X0083199Y0026394D01*
X0083199Y0025196D02*
X0009837Y0025196D01*
X0009837Y0023997D02*
X0083199Y0023997D01*
X0083199Y0022799D02*
X0009837Y0022799D01*
X0009837Y0021600D02*
X0083199Y0021600D01*
X0083199Y0020401D02*
X0009837Y0020401D01*
X0009837Y0019203D02*
X0083199Y0019203D01*
X0083199Y0018004D02*
X0009837Y0018004D01*
X0009837Y0016806D02*
X0083199Y0016806D01*
X0083199Y0015607D02*
X0009837Y0015607D01*
X0009837Y0014409D02*
X0083199Y0014409D01*
X0083199Y0013210D02*
X0009837Y0013210D01*
X0009837Y0012012D02*
X0083199Y0012012D01*
X0083199Y0010813D02*
X0009837Y0010813D01*
X0009837Y0009615D02*
X0083199Y0009615D01*
X0083199Y0008416D02*
X0009837Y0008416D01*
X0009837Y0007218D02*
X0083199Y0007218D01*
X0083199Y0006019D02*
X0009837Y0006019D01*
D13*
X0018237Y0010350D03*
X0029487Y0016600D03*
X0030112Y0026600D03*
X0039487Y0026600D03*
X0041987Y0016600D03*
X0056674Y0026600D03*
X0053862Y0042850D03*
X0040112Y0056600D03*
X0026987Y0061600D03*
X0019487Y0035350D03*
X0070112Y0029100D03*
M02*
