G75*
%MOIN*%
%OFA0B0*%
%FSLAX25Y25*%
%IPPOS*%
%LPD*%
%AMOC8*
5,1,8,0,0,1.08239X$1,22.5*
%
%ADD10C,0.00000*%
%ADD11C,0.00500*%
%ADD12C,0.00600*%
%ADD13C,0.00800*%
%ADD14C,0.02100*%
D10*
X0008237Y0004725D02*
X0009487Y0003475D01*
X0083549Y0003475D01*
X0084799Y0004725D01*
X0084799Y0104100D01*
X0083549Y0105350D01*
X0043549Y0105350D01*
X0042299Y0106600D01*
X0042299Y0107850D01*
X0041049Y0109100D01*
X0009487Y0109100D01*
X0008237Y0107850D01*
X0008237Y0004725D01*
X0059774Y0106472D02*
X0059776Y0106584D01*
X0059782Y0106695D01*
X0059792Y0106807D01*
X0059806Y0106918D01*
X0059823Y0107028D01*
X0059845Y0107138D01*
X0059871Y0107247D01*
X0059900Y0107355D01*
X0059933Y0107461D01*
X0059970Y0107567D01*
X0060011Y0107671D01*
X0060056Y0107774D01*
X0060104Y0107875D01*
X0060155Y0107974D01*
X0060210Y0108071D01*
X0060269Y0108166D01*
X0060330Y0108260D01*
X0060395Y0108351D01*
X0060464Y0108439D01*
X0060535Y0108525D01*
X0060609Y0108609D01*
X0060687Y0108689D01*
X0060767Y0108767D01*
X0060850Y0108843D01*
X0060935Y0108915D01*
X0061023Y0108984D01*
X0061113Y0109050D01*
X0061206Y0109112D01*
X0061301Y0109172D01*
X0061398Y0109228D01*
X0061496Y0109280D01*
X0061597Y0109329D01*
X0061699Y0109374D01*
X0061803Y0109416D01*
X0061908Y0109454D01*
X0062015Y0109488D01*
X0062122Y0109518D01*
X0062231Y0109545D01*
X0062340Y0109567D01*
X0062451Y0109586D01*
X0062561Y0109601D01*
X0062673Y0109612D01*
X0062784Y0109619D01*
X0062896Y0109622D01*
X0063008Y0109621D01*
X0063120Y0109616D01*
X0063231Y0109607D01*
X0063342Y0109594D01*
X0063453Y0109577D01*
X0063563Y0109557D01*
X0063672Y0109532D01*
X0063780Y0109504D01*
X0063887Y0109471D01*
X0063993Y0109435D01*
X0064097Y0109395D01*
X0064200Y0109352D01*
X0064302Y0109305D01*
X0064401Y0109254D01*
X0064499Y0109200D01*
X0064595Y0109142D01*
X0064689Y0109081D01*
X0064780Y0109017D01*
X0064869Y0108950D01*
X0064956Y0108879D01*
X0065040Y0108805D01*
X0065122Y0108729D01*
X0065200Y0108649D01*
X0065276Y0108567D01*
X0065349Y0108482D01*
X0065419Y0108395D01*
X0065485Y0108305D01*
X0065549Y0108213D01*
X0065609Y0108119D01*
X0065666Y0108023D01*
X0065719Y0107924D01*
X0065769Y0107824D01*
X0065815Y0107723D01*
X0065858Y0107619D01*
X0065897Y0107514D01*
X0065932Y0107408D01*
X0065963Y0107301D01*
X0065991Y0107192D01*
X0066014Y0107083D01*
X0066034Y0106973D01*
X0066050Y0106862D01*
X0066062Y0106751D01*
X0066070Y0106640D01*
X0066074Y0106528D01*
X0066074Y0106416D01*
X0066070Y0106304D01*
X0066062Y0106193D01*
X0066050Y0106082D01*
X0066034Y0105971D01*
X0066014Y0105861D01*
X0065991Y0105752D01*
X0065963Y0105643D01*
X0065932Y0105536D01*
X0065897Y0105430D01*
X0065858Y0105325D01*
X0065815Y0105221D01*
X0065769Y0105120D01*
X0065719Y0105020D01*
X0065666Y0104921D01*
X0065609Y0104825D01*
X0065549Y0104731D01*
X0065485Y0104639D01*
X0065419Y0104549D01*
X0065349Y0104462D01*
X0065276Y0104377D01*
X0065200Y0104295D01*
X0065122Y0104215D01*
X0065040Y0104139D01*
X0064956Y0104065D01*
X0064869Y0103994D01*
X0064780Y0103927D01*
X0064689Y0103863D01*
X0064595Y0103802D01*
X0064499Y0103744D01*
X0064401Y0103690D01*
X0064302Y0103639D01*
X0064200Y0103592D01*
X0064097Y0103549D01*
X0063993Y0103509D01*
X0063887Y0103473D01*
X0063780Y0103440D01*
X0063672Y0103412D01*
X0063563Y0103387D01*
X0063453Y0103367D01*
X0063342Y0103350D01*
X0063231Y0103337D01*
X0063120Y0103328D01*
X0063008Y0103323D01*
X0062896Y0103322D01*
X0062784Y0103325D01*
X0062673Y0103332D01*
X0062561Y0103343D01*
X0062451Y0103358D01*
X0062340Y0103377D01*
X0062231Y0103399D01*
X0062122Y0103426D01*
X0062015Y0103456D01*
X0061908Y0103490D01*
X0061803Y0103528D01*
X0061699Y0103570D01*
X0061597Y0103615D01*
X0061496Y0103664D01*
X0061398Y0103716D01*
X0061301Y0103772D01*
X0061206Y0103832D01*
X0061113Y0103894D01*
X0061023Y0103960D01*
X0060935Y0104029D01*
X0060850Y0104101D01*
X0060767Y0104177D01*
X0060687Y0104255D01*
X0060609Y0104335D01*
X0060535Y0104419D01*
X0060464Y0104505D01*
X0060395Y0104593D01*
X0060330Y0104684D01*
X0060269Y0104778D01*
X0060210Y0104873D01*
X0060155Y0104970D01*
X0060104Y0105069D01*
X0060056Y0105170D01*
X0060011Y0105273D01*
X0059970Y0105377D01*
X0059933Y0105483D01*
X0059900Y0105589D01*
X0059871Y0105697D01*
X0059845Y0105806D01*
X0059823Y0105916D01*
X0059806Y0106026D01*
X0059792Y0106137D01*
X0059782Y0106249D01*
X0059776Y0106360D01*
X0059774Y0106472D01*
D11*
X0059793Y0095765D02*
X0058893Y0095765D01*
X0058442Y0095314D01*
X0058442Y0093513D01*
X0060244Y0095314D01*
X0060244Y0093513D01*
X0059793Y0093062D01*
X0058893Y0093062D01*
X0058442Y0093513D01*
X0057297Y0094414D02*
X0055496Y0094414D01*
X0054351Y0095765D02*
X0053450Y0095765D01*
X0053900Y0095765D02*
X0053900Y0093513D01*
X0053450Y0093062D01*
X0052999Y0093062D01*
X0052549Y0093513D01*
X0051404Y0093513D02*
X0050954Y0093062D01*
X0050053Y0093062D01*
X0049603Y0093513D01*
X0049603Y0095314D01*
X0050053Y0095765D01*
X0050954Y0095765D01*
X0051404Y0095314D01*
X0048458Y0095314D02*
X0048458Y0094414D01*
X0048007Y0093963D01*
X0046656Y0093963D01*
X0046656Y0093062D02*
X0046656Y0095765D01*
X0048007Y0095765D01*
X0048458Y0095314D01*
X0047557Y0093963D02*
X0048458Y0093062D01*
X0039218Y0092900D02*
X0037866Y0092900D01*
X0037416Y0093350D01*
X0037416Y0094251D01*
X0037866Y0094702D01*
X0039218Y0094702D01*
X0039218Y0095602D02*
X0039218Y0092900D01*
X0036271Y0093801D02*
X0034470Y0093801D01*
X0034470Y0094251D02*
X0034470Y0093350D01*
X0034920Y0092900D01*
X0035821Y0092900D01*
X0036271Y0093801D02*
X0036271Y0094251D01*
X0035821Y0094702D01*
X0034920Y0094702D01*
X0034470Y0094251D01*
X0033365Y0094702D02*
X0032915Y0094702D01*
X0032014Y0093801D01*
X0032014Y0092900D02*
X0032014Y0094702D01*
X0030869Y0094251D02*
X0030869Y0093801D01*
X0029068Y0093801D01*
X0029068Y0094251D02*
X0029068Y0093350D01*
X0029518Y0092900D01*
X0030419Y0092900D01*
X0031032Y0090802D02*
X0032834Y0088100D01*
X0031032Y0088100D02*
X0032834Y0090802D01*
X0029887Y0090352D02*
X0029887Y0089902D01*
X0029437Y0089451D01*
X0028085Y0089451D01*
X0028085Y0088100D02*
X0028085Y0090802D01*
X0029437Y0090802D01*
X0029887Y0090352D01*
X0029437Y0089451D02*
X0029887Y0089001D01*
X0029887Y0088550D01*
X0029437Y0088100D01*
X0028085Y0088100D01*
X0026040Y0089451D02*
X0025139Y0089451D01*
X0025139Y0088100D02*
X0025139Y0090802D01*
X0026941Y0090802D01*
X0027103Y0092900D02*
X0028004Y0092900D01*
X0027554Y0092900D02*
X0027554Y0094702D01*
X0027103Y0094702D01*
X0027554Y0095602D02*
X0027554Y0096053D01*
X0029068Y0094251D02*
X0029518Y0094702D01*
X0030419Y0094702D01*
X0030869Y0094251D01*
X0025958Y0094251D02*
X0025958Y0093350D01*
X0025508Y0092900D01*
X0024157Y0092900D01*
X0024157Y0091999D02*
X0024157Y0094702D01*
X0025508Y0094702D01*
X0025958Y0094251D01*
X0023012Y0094702D02*
X0021661Y0094702D01*
X0021210Y0094251D01*
X0021661Y0093801D01*
X0022561Y0093801D01*
X0023012Y0093350D01*
X0022561Y0092900D01*
X0021210Y0092900D01*
X0020065Y0092900D02*
X0020065Y0094251D01*
X0019615Y0094702D01*
X0018264Y0094702D01*
X0018264Y0092900D01*
X0017200Y0092900D02*
X0016299Y0092900D01*
X0016750Y0092900D02*
X0016750Y0094702D01*
X0016299Y0094702D01*
X0016750Y0095602D02*
X0016750Y0096053D01*
X0016299Y0090802D02*
X0016299Y0088100D01*
X0017651Y0088100D01*
X0018101Y0088550D01*
X0018101Y0089451D01*
X0017651Y0089902D01*
X0016299Y0089902D01*
X0019246Y0089902D02*
X0019246Y0088550D01*
X0019696Y0088100D01*
X0021047Y0088100D01*
X0021047Y0087650D02*
X0020597Y0087199D01*
X0020147Y0087199D01*
X0021047Y0087650D02*
X0021047Y0089902D01*
X0020496Y0081740D02*
X0022297Y0079038D01*
X0022297Y0081740D01*
X0020496Y0081740D02*
X0020496Y0079038D01*
X0019351Y0079488D02*
X0019351Y0080389D01*
X0018450Y0080389D01*
X0017549Y0081289D02*
X0017549Y0079488D01*
X0018000Y0079038D01*
X0018901Y0079038D01*
X0019351Y0079488D01*
X0019351Y0081289D02*
X0018901Y0081740D01*
X0018000Y0081740D01*
X0017549Y0081289D01*
X0023442Y0081740D02*
X0023442Y0079038D01*
X0024794Y0079038D01*
X0025244Y0079488D01*
X0025244Y0081289D01*
X0024794Y0081740D01*
X0023442Y0081740D01*
X0016847Y0072677D02*
X0015946Y0072677D01*
X0015496Y0072227D01*
X0014351Y0072227D02*
X0013901Y0072677D01*
X0013000Y0072677D01*
X0012549Y0072227D01*
X0012549Y0070425D01*
X0013000Y0069975D01*
X0013901Y0069975D01*
X0014351Y0070425D01*
X0015496Y0070425D02*
X0015946Y0069975D01*
X0016847Y0069975D01*
X0017297Y0070425D01*
X0017297Y0070876D01*
X0016847Y0071326D01*
X0016397Y0071326D01*
X0016847Y0071326D02*
X0017297Y0071777D01*
X0017297Y0072227D01*
X0016847Y0072677D01*
X0016847Y0062677D02*
X0015946Y0062677D01*
X0015496Y0062227D01*
X0014351Y0062227D02*
X0014351Y0061326D01*
X0013901Y0060876D01*
X0012549Y0060876D01*
X0012549Y0059975D02*
X0012549Y0062677D01*
X0013901Y0062677D01*
X0014351Y0062227D01*
X0013450Y0060876D02*
X0014351Y0059975D01*
X0015496Y0059975D02*
X0017297Y0061777D01*
X0017297Y0062227D01*
X0016847Y0062677D01*
X0017297Y0059975D02*
X0015496Y0059975D01*
X0016397Y0052990D02*
X0016397Y0050287D01*
X0017297Y0050287D02*
X0015496Y0050287D01*
X0014351Y0050287D02*
X0013450Y0051188D01*
X0013901Y0051188D02*
X0012549Y0051188D01*
X0012549Y0050287D02*
X0012549Y0052990D01*
X0013901Y0052990D01*
X0014351Y0052539D01*
X0014351Y0051639D01*
X0013901Y0051188D01*
X0015496Y0052089D02*
X0016397Y0052990D01*
X0015147Y0041115D02*
X0015147Y0038413D01*
X0016047Y0038413D02*
X0014246Y0038413D01*
X0013101Y0038863D02*
X0012651Y0038413D01*
X0011750Y0038413D01*
X0011299Y0038863D01*
X0011299Y0040664D01*
X0011750Y0041115D01*
X0012651Y0041115D01*
X0013101Y0040664D01*
X0014246Y0040214D02*
X0015147Y0041115D01*
X0018924Y0024098D02*
X0018924Y0022297D01*
X0018924Y0023197D02*
X0016222Y0023197D01*
X0017123Y0022297D01*
X0016222Y0021152D02*
X0018474Y0021152D01*
X0018924Y0020701D01*
X0018924Y0019800D01*
X0018474Y0019350D01*
X0016222Y0019350D01*
X0016612Y0007677D02*
X0016612Y0005876D01*
X0017513Y0004975D01*
X0018413Y0005876D01*
X0018413Y0007677D01*
X0019558Y0006326D02*
X0019558Y0005425D01*
X0020009Y0004975D01*
X0021360Y0004975D01*
X0021360Y0006777D02*
X0020009Y0006777D01*
X0019558Y0006326D01*
X0022505Y0006326D02*
X0022505Y0005425D01*
X0022955Y0004975D01*
X0024306Y0004975D01*
X0024306Y0006777D02*
X0022955Y0006777D01*
X0022505Y0006326D01*
X0036737Y0040600D02*
X0036737Y0072600D01*
X0064737Y0072600D01*
X0064737Y0040600D01*
X0036737Y0040600D01*
X0040674Y0051912D02*
X0042025Y0051912D01*
X0042476Y0052363D01*
X0042476Y0054164D01*
X0042025Y0054615D01*
X0040674Y0054615D01*
X0040674Y0051912D01*
X0043621Y0051912D02*
X0043621Y0053714D01*
X0044521Y0054615D01*
X0045422Y0053714D01*
X0045422Y0051912D01*
X0045422Y0053264D02*
X0043621Y0053264D01*
X0044521Y0056712D02*
X0044521Y0059415D01*
X0043621Y0059415D02*
X0045422Y0059415D01*
X0046567Y0058964D02*
X0046567Y0057163D01*
X0047018Y0056712D01*
X0047918Y0056712D01*
X0048369Y0057163D01*
X0048369Y0058064D01*
X0047468Y0058064D01*
X0048369Y0058964D02*
X0047918Y0059415D01*
X0047018Y0059415D01*
X0046567Y0058964D01*
X0049514Y0058514D02*
X0050414Y0059415D01*
X0050414Y0056712D01*
X0049514Y0056712D02*
X0051315Y0056712D01*
X0052460Y0057163D02*
X0054262Y0058964D01*
X0054262Y0057163D01*
X0053811Y0056712D01*
X0052911Y0056712D01*
X0052460Y0057163D01*
X0052460Y0058964D01*
X0052911Y0059415D01*
X0053811Y0059415D01*
X0054262Y0058964D01*
X0055407Y0058064D02*
X0057208Y0058064D01*
X0058353Y0054615D02*
X0060155Y0054615D01*
X0059254Y0053264D02*
X0058353Y0053264D01*
X0058353Y0054615D02*
X0058353Y0051912D01*
X0057208Y0051912D02*
X0055407Y0051912D01*
X0055407Y0054615D01*
X0054262Y0054164D02*
X0053811Y0054615D01*
X0052911Y0054615D01*
X0052460Y0054164D01*
X0052460Y0053714D01*
X0052911Y0053264D01*
X0053811Y0053264D01*
X0054262Y0052813D01*
X0054262Y0052363D01*
X0053811Y0051912D01*
X0052911Y0051912D01*
X0052460Y0052363D01*
X0051315Y0051912D02*
X0051315Y0054615D01*
X0049514Y0054615D02*
X0049514Y0051912D01*
X0048369Y0051912D02*
X0046567Y0051912D01*
X0047468Y0051912D02*
X0047468Y0054615D01*
X0046567Y0053714D01*
X0049514Y0054615D02*
X0051315Y0051912D01*
X0062687Y0035177D02*
X0062237Y0034727D01*
X0062237Y0032925D01*
X0062687Y0032475D01*
X0063588Y0032475D01*
X0064038Y0032925D01*
X0065183Y0032475D02*
X0066985Y0034277D01*
X0066985Y0034727D01*
X0066535Y0035177D01*
X0065634Y0035177D01*
X0065183Y0034727D01*
X0064038Y0034727D02*
X0063588Y0035177D01*
X0062687Y0035177D01*
X0065183Y0032475D02*
X0066985Y0032475D01*
X0069250Y0037788D02*
X0070151Y0037788D01*
X0070601Y0038238D01*
X0070601Y0039139D01*
X0069700Y0039139D01*
X0068799Y0040039D02*
X0068799Y0038238D01*
X0069250Y0037788D01*
X0068799Y0040039D02*
X0069250Y0040490D01*
X0070151Y0040490D01*
X0070601Y0040039D01*
X0071746Y0040490D02*
X0071746Y0037788D01*
X0073547Y0037788D02*
X0071746Y0040490D01*
X0073547Y0040490D02*
X0073547Y0037788D01*
X0074692Y0037788D02*
X0076044Y0037788D01*
X0076494Y0038238D01*
X0076494Y0040039D01*
X0076044Y0040490D01*
X0074692Y0040490D01*
X0074692Y0037788D01*
X0074700Y0028302D02*
X0074700Y0025600D01*
X0073799Y0025600D02*
X0075601Y0025600D01*
X0075151Y0023302D02*
X0074250Y0023302D01*
X0073799Y0022852D01*
X0075151Y0023302D02*
X0075601Y0022852D01*
X0075601Y0022402D01*
X0073799Y0020600D01*
X0075601Y0020600D01*
X0075151Y0018302D02*
X0074250Y0018302D01*
X0073799Y0017852D01*
X0074700Y0016951D02*
X0075151Y0016951D01*
X0075601Y0016501D01*
X0075601Y0016050D01*
X0075151Y0015600D01*
X0074250Y0015600D01*
X0073799Y0016050D01*
X0075151Y0016951D02*
X0075601Y0017402D01*
X0075601Y0017852D01*
X0075151Y0018302D01*
X0075151Y0013302D02*
X0073799Y0011951D01*
X0075601Y0011951D01*
X0075151Y0010600D02*
X0075151Y0013302D01*
X0075288Y0008302D02*
X0073487Y0008302D01*
X0073487Y0006951D01*
X0074388Y0007402D01*
X0074838Y0007402D01*
X0075288Y0006951D01*
X0075288Y0006050D01*
X0074838Y0005600D01*
X0073937Y0005600D01*
X0073487Y0006050D01*
X0073799Y0027402D02*
X0074700Y0028302D01*
X0081250Y0048100D02*
X0081250Y0049902D01*
X0081250Y0051047D02*
X0081250Y0052848D01*
X0080799Y0053993D02*
X0078097Y0055795D01*
X0078097Y0056940D02*
X0078998Y0057840D01*
X0079899Y0057840D01*
X0080799Y0056940D01*
X0081250Y0058904D02*
X0081250Y0060705D01*
X0081250Y0061850D02*
X0081250Y0063652D01*
X0080799Y0064797D02*
X0078097Y0066598D01*
X0078097Y0067743D02*
X0078998Y0068644D01*
X0079899Y0068644D01*
X0080799Y0067743D01*
X0081250Y0069708D02*
X0081250Y0071509D01*
X0077022Y0093062D02*
X0077022Y0095765D01*
X0076121Y0095765D02*
X0077923Y0095765D01*
X0074976Y0095765D02*
X0074976Y0093062D01*
X0074075Y0094864D02*
X0074976Y0095765D01*
X0074075Y0094864D02*
X0073175Y0095765D01*
X0073175Y0093062D01*
X0072030Y0093513D02*
X0071579Y0093062D01*
X0070679Y0093062D01*
X0070228Y0093513D01*
X0070679Y0094414D02*
X0071579Y0094414D01*
X0072030Y0093963D01*
X0072030Y0093513D01*
X0072030Y0095314D02*
X0071579Y0095765D01*
X0070679Y0095765D01*
X0070228Y0095314D01*
X0070228Y0094864D01*
X0070679Y0094414D01*
X0069083Y0094414D02*
X0067282Y0094414D01*
X0066137Y0095765D02*
X0064335Y0093062D01*
X0063190Y0093062D02*
X0061389Y0093062D01*
X0062289Y0093062D02*
X0062289Y0095765D01*
X0061389Y0094864D01*
X0060244Y0095314D02*
X0059793Y0095765D01*
X0064335Y0095765D02*
X0066137Y0093062D01*
D12*
X0079263Y0107259D02*
X0079263Y0110586D01*
X0079263Y0107259D02*
X0082924Y0107259D01*
X0082924Y0101748D01*
X0082924Y0097811D02*
X0082924Y0092299D01*
X0082924Y0088362D02*
X0082924Y0082850D01*
X0079263Y0114523D02*
X0079263Y0117850D01*
X0046586Y0117850D02*
X0046586Y0114523D01*
X0046586Y0110586D02*
X0046586Y0107259D01*
X0042924Y0107259D01*
X0042924Y0101748D01*
X0042924Y0097811D02*
X0042924Y0092299D01*
X0042924Y0088362D02*
X0042924Y0082850D01*
X0039407Y0098650D02*
X0038273Y0098650D01*
X0037706Y0099217D01*
X0037706Y0099784D01*
X0038273Y0100351D01*
X0039407Y0100351D01*
X0039974Y0099784D01*
X0039974Y0099217D01*
X0039407Y0098650D01*
X0039407Y0100351D02*
X0039974Y0100919D01*
X0039974Y0101486D01*
X0039407Y0102053D01*
X0038273Y0102053D01*
X0037706Y0101486D01*
X0037706Y0100919D01*
X0038273Y0100351D01*
X0036291Y0099784D02*
X0036291Y0099217D01*
X0035724Y0098650D01*
X0034590Y0098650D01*
X0034023Y0099217D01*
X0032608Y0099217D02*
X0032608Y0101486D01*
X0032041Y0102053D01*
X0030907Y0102053D01*
X0030339Y0101486D01*
X0030339Y0100919D01*
X0030907Y0100351D01*
X0032608Y0100351D01*
X0032608Y0099217D02*
X0032041Y0098650D01*
X0030907Y0098650D01*
X0030339Y0099217D01*
X0028925Y0100351D02*
X0026656Y0100351D01*
X0028358Y0102053D01*
X0028358Y0098650D01*
X0025335Y0098650D02*
X0024201Y0098650D01*
X0024768Y0098650D02*
X0024768Y0100919D01*
X0024201Y0100919D01*
X0024768Y0102053D02*
X0024768Y0102620D01*
X0022880Y0100919D02*
X0021745Y0100919D01*
X0022313Y0101486D02*
X0022313Y0099217D01*
X0022880Y0098650D01*
X0020378Y0100919D02*
X0019810Y0100919D01*
X0018676Y0099784D01*
X0018676Y0098650D02*
X0018676Y0100919D01*
X0017262Y0100351D02*
X0017262Y0099217D01*
X0016694Y0098650D01*
X0015560Y0098650D01*
X0014993Y0099217D01*
X0014993Y0100351D01*
X0015560Y0100919D01*
X0016694Y0100919D01*
X0017262Y0100351D01*
X0013578Y0100351D02*
X0013578Y0099217D01*
X0013011Y0098650D01*
X0011310Y0098650D01*
X0011310Y0102053D01*
X0011310Y0100919D02*
X0013011Y0100919D01*
X0013578Y0100351D01*
X0034023Y0101486D02*
X0034590Y0102053D01*
X0035724Y0102053D01*
X0036291Y0101486D01*
X0036291Y0100919D01*
X0035724Y0100351D01*
X0036291Y0099784D01*
X0035724Y0100351D02*
X0035157Y0100351D01*
X0019487Y0068163D02*
X0016987Y0068163D01*
X0016987Y0065037D02*
X0019487Y0065037D01*
X0019487Y0058162D02*
X0016987Y0058162D01*
X0016987Y0055037D02*
X0019487Y0055037D01*
X0019487Y0048162D02*
X0016987Y0048162D01*
X0016987Y0045037D02*
X0019487Y0045037D01*
X0014799Y0032850D02*
X0014799Y0030350D01*
X0011674Y0030350D02*
X0011674Y0032850D01*
X0063237Y0026912D02*
X0063237Y0024412D01*
X0066362Y0024412D02*
X0066362Y0026912D01*
D13*
X0058385Y0030065D02*
X0058385Y0013135D01*
X0020589Y0013135D01*
X0020589Y0030065D01*
X0058385Y0030065D01*
X0023148Y0016482D02*
X0023150Y0016553D01*
X0023156Y0016624D01*
X0023166Y0016695D01*
X0023180Y0016764D01*
X0023197Y0016833D01*
X0023219Y0016901D01*
X0023244Y0016968D01*
X0023273Y0017033D01*
X0023305Y0017096D01*
X0023341Y0017158D01*
X0023380Y0017217D01*
X0023423Y0017274D01*
X0023468Y0017329D01*
X0023517Y0017381D01*
X0023568Y0017430D01*
X0023622Y0017476D01*
X0023679Y0017520D01*
X0023737Y0017560D01*
X0023798Y0017596D01*
X0023861Y0017630D01*
X0023926Y0017659D01*
X0023992Y0017685D01*
X0024060Y0017708D01*
X0024128Y0017726D01*
X0024198Y0017741D01*
X0024268Y0017752D01*
X0024339Y0017759D01*
X0024410Y0017762D01*
X0024481Y0017761D01*
X0024552Y0017756D01*
X0024623Y0017747D01*
X0024693Y0017734D01*
X0024762Y0017718D01*
X0024830Y0017697D01*
X0024897Y0017673D01*
X0024963Y0017645D01*
X0025026Y0017613D01*
X0025088Y0017578D01*
X0025148Y0017540D01*
X0025206Y0017498D01*
X0025261Y0017454D01*
X0025314Y0017406D01*
X0025364Y0017355D01*
X0025411Y0017302D01*
X0025455Y0017246D01*
X0025496Y0017188D01*
X0025534Y0017127D01*
X0025568Y0017065D01*
X0025598Y0017000D01*
X0025625Y0016935D01*
X0025649Y0016867D01*
X0025668Y0016799D01*
X0025684Y0016730D01*
X0025696Y0016659D01*
X0025704Y0016589D01*
X0025708Y0016518D01*
X0025708Y0016446D01*
X0025704Y0016375D01*
X0025696Y0016305D01*
X0025684Y0016234D01*
X0025668Y0016165D01*
X0025649Y0016097D01*
X0025625Y0016029D01*
X0025598Y0015964D01*
X0025568Y0015899D01*
X0025534Y0015837D01*
X0025496Y0015776D01*
X0025455Y0015718D01*
X0025411Y0015662D01*
X0025364Y0015609D01*
X0025314Y0015558D01*
X0025261Y0015510D01*
X0025206Y0015466D01*
X0025148Y0015424D01*
X0025088Y0015386D01*
X0025026Y0015351D01*
X0024963Y0015319D01*
X0024897Y0015291D01*
X0024830Y0015267D01*
X0024762Y0015246D01*
X0024693Y0015230D01*
X0024623Y0015217D01*
X0024552Y0015208D01*
X0024481Y0015203D01*
X0024410Y0015202D01*
X0024339Y0015205D01*
X0024268Y0015212D01*
X0024198Y0015223D01*
X0024128Y0015238D01*
X0024060Y0015256D01*
X0023992Y0015279D01*
X0023926Y0015305D01*
X0023861Y0015334D01*
X0023798Y0015368D01*
X0023737Y0015404D01*
X0023679Y0015444D01*
X0023622Y0015488D01*
X0023568Y0015534D01*
X0023517Y0015583D01*
X0023468Y0015635D01*
X0023423Y0015690D01*
X0023380Y0015747D01*
X0023341Y0015806D01*
X0023305Y0015868D01*
X0023273Y0015931D01*
X0023244Y0015996D01*
X0023219Y0016063D01*
X0023197Y0016131D01*
X0023180Y0016200D01*
X0023166Y0016269D01*
X0023156Y0016340D01*
X0023150Y0016411D01*
X0023148Y0016482D01*
D14*
X0040137Y0068100D02*
X0040139Y0068166D01*
X0040145Y0068231D01*
X0040155Y0068296D01*
X0040168Y0068361D01*
X0040186Y0068424D01*
X0040207Y0068487D01*
X0040232Y0068547D01*
X0040261Y0068607D01*
X0040293Y0068664D01*
X0040328Y0068720D01*
X0040367Y0068773D01*
X0040409Y0068824D01*
X0040453Y0068872D01*
X0040501Y0068917D01*
X0040551Y0068960D01*
X0040604Y0068999D01*
X0040659Y0069036D01*
X0040716Y0069069D01*
X0040775Y0069098D01*
X0040835Y0069124D01*
X0040897Y0069146D01*
X0040960Y0069165D01*
X0041024Y0069179D01*
X0041089Y0069190D01*
X0041155Y0069197D01*
X0041221Y0069200D01*
X0041286Y0069199D01*
X0041352Y0069194D01*
X0041417Y0069185D01*
X0041482Y0069172D01*
X0041545Y0069156D01*
X0041608Y0069136D01*
X0041669Y0069111D01*
X0041729Y0069084D01*
X0041787Y0069053D01*
X0041843Y0069018D01*
X0041897Y0068980D01*
X0041948Y0068939D01*
X0041997Y0068895D01*
X0042043Y0068848D01*
X0042087Y0068799D01*
X0042127Y0068747D01*
X0042164Y0068692D01*
X0042198Y0068636D01*
X0042228Y0068577D01*
X0042255Y0068517D01*
X0042278Y0068456D01*
X0042297Y0068393D01*
X0042313Y0068329D01*
X0042325Y0068264D01*
X0042333Y0068199D01*
X0042337Y0068133D01*
X0042337Y0068067D01*
X0042333Y0068001D01*
X0042325Y0067936D01*
X0042313Y0067871D01*
X0042297Y0067807D01*
X0042278Y0067744D01*
X0042255Y0067683D01*
X0042228Y0067623D01*
X0042198Y0067564D01*
X0042164Y0067508D01*
X0042127Y0067453D01*
X0042087Y0067401D01*
X0042043Y0067352D01*
X0041997Y0067305D01*
X0041948Y0067261D01*
X0041897Y0067220D01*
X0041843Y0067182D01*
X0041787Y0067147D01*
X0041729Y0067116D01*
X0041669Y0067089D01*
X0041608Y0067064D01*
X0041545Y0067044D01*
X0041482Y0067028D01*
X0041417Y0067015D01*
X0041352Y0067006D01*
X0041286Y0067001D01*
X0041221Y0067000D01*
X0041155Y0067003D01*
X0041089Y0067010D01*
X0041024Y0067021D01*
X0040960Y0067035D01*
X0040897Y0067054D01*
X0040835Y0067076D01*
X0040775Y0067102D01*
X0040716Y0067131D01*
X0040659Y0067164D01*
X0040604Y0067201D01*
X0040551Y0067240D01*
X0040501Y0067283D01*
X0040453Y0067328D01*
X0040409Y0067376D01*
X0040367Y0067427D01*
X0040328Y0067480D01*
X0040293Y0067536D01*
X0040261Y0067593D01*
X0040232Y0067653D01*
X0040207Y0067713D01*
X0040186Y0067776D01*
X0040168Y0067839D01*
X0040155Y0067904D01*
X0040145Y0067969D01*
X0040139Y0068034D01*
X0040137Y0068100D01*
M02*
