G75*
%MOIN*%
%OFA0B0*%
%FSLAX25Y25*%
%IPPOS*%
%LPD*%
%AMOC8*
5,1,8,0,0,1.08239X$1,22.5*
%
%ADD10C,0.00000*%
%ADD11R,0.05000X0.10000*%
%ADD12R,0.01575X0.04724*%
%ADD13R,0.03937X0.04331*%
%ADD14R,0.04331X0.03937*%
%ADD15R,0.06299X0.03150*%
%ADD16R,0.10000X0.12000*%
%ADD17R,0.06000X0.04000*%
%ADD18C,0.01200*%
%ADD19C,0.13449*%
%ADD20C,0.02775*%
%ADD21C,0.02400*%
%ADD22C,0.01600*%
%ADD23C,0.00800*%
%ADD24C,0.00600*%
D10*
X0008237Y0004725D02*
X0009487Y0003475D01*
X0083549Y0003475D01*
X0084799Y0004725D01*
X0084799Y0104100D01*
X0083549Y0105350D01*
X0043549Y0105350D01*
X0042299Y0106600D01*
X0042299Y0107850D01*
X0041049Y0109100D01*
X0009487Y0109100D01*
X0008237Y0107850D01*
X0008237Y0004725D01*
X0059774Y0106472D02*
X0059776Y0106584D01*
X0059782Y0106695D01*
X0059792Y0106807D01*
X0059806Y0106918D01*
X0059823Y0107028D01*
X0059845Y0107138D01*
X0059871Y0107247D01*
X0059900Y0107355D01*
X0059933Y0107461D01*
X0059970Y0107567D01*
X0060011Y0107671D01*
X0060056Y0107774D01*
X0060104Y0107875D01*
X0060155Y0107974D01*
X0060210Y0108071D01*
X0060269Y0108166D01*
X0060330Y0108260D01*
X0060395Y0108351D01*
X0060464Y0108439D01*
X0060535Y0108525D01*
X0060609Y0108609D01*
X0060687Y0108689D01*
X0060767Y0108767D01*
X0060850Y0108843D01*
X0060935Y0108915D01*
X0061023Y0108984D01*
X0061113Y0109050D01*
X0061206Y0109112D01*
X0061301Y0109172D01*
X0061398Y0109228D01*
X0061496Y0109280D01*
X0061597Y0109329D01*
X0061699Y0109374D01*
X0061803Y0109416D01*
X0061908Y0109454D01*
X0062015Y0109488D01*
X0062122Y0109518D01*
X0062231Y0109545D01*
X0062340Y0109567D01*
X0062451Y0109586D01*
X0062561Y0109601D01*
X0062673Y0109612D01*
X0062784Y0109619D01*
X0062896Y0109622D01*
X0063008Y0109621D01*
X0063120Y0109616D01*
X0063231Y0109607D01*
X0063342Y0109594D01*
X0063453Y0109577D01*
X0063563Y0109557D01*
X0063672Y0109532D01*
X0063780Y0109504D01*
X0063887Y0109471D01*
X0063993Y0109435D01*
X0064097Y0109395D01*
X0064200Y0109352D01*
X0064302Y0109305D01*
X0064401Y0109254D01*
X0064499Y0109200D01*
X0064595Y0109142D01*
X0064689Y0109081D01*
X0064780Y0109017D01*
X0064869Y0108950D01*
X0064956Y0108879D01*
X0065040Y0108805D01*
X0065122Y0108729D01*
X0065200Y0108649D01*
X0065276Y0108567D01*
X0065349Y0108482D01*
X0065419Y0108395D01*
X0065485Y0108305D01*
X0065549Y0108213D01*
X0065609Y0108119D01*
X0065666Y0108023D01*
X0065719Y0107924D01*
X0065769Y0107824D01*
X0065815Y0107723D01*
X0065858Y0107619D01*
X0065897Y0107514D01*
X0065932Y0107408D01*
X0065963Y0107301D01*
X0065991Y0107192D01*
X0066014Y0107083D01*
X0066034Y0106973D01*
X0066050Y0106862D01*
X0066062Y0106751D01*
X0066070Y0106640D01*
X0066074Y0106528D01*
X0066074Y0106416D01*
X0066070Y0106304D01*
X0066062Y0106193D01*
X0066050Y0106082D01*
X0066034Y0105971D01*
X0066014Y0105861D01*
X0065991Y0105752D01*
X0065963Y0105643D01*
X0065932Y0105536D01*
X0065897Y0105430D01*
X0065858Y0105325D01*
X0065815Y0105221D01*
X0065769Y0105120D01*
X0065719Y0105020D01*
X0065666Y0104921D01*
X0065609Y0104825D01*
X0065549Y0104731D01*
X0065485Y0104639D01*
X0065419Y0104549D01*
X0065349Y0104462D01*
X0065276Y0104377D01*
X0065200Y0104295D01*
X0065122Y0104215D01*
X0065040Y0104139D01*
X0064956Y0104065D01*
X0064869Y0103994D01*
X0064780Y0103927D01*
X0064689Y0103863D01*
X0064595Y0103802D01*
X0064499Y0103744D01*
X0064401Y0103690D01*
X0064302Y0103639D01*
X0064200Y0103592D01*
X0064097Y0103549D01*
X0063993Y0103509D01*
X0063887Y0103473D01*
X0063780Y0103440D01*
X0063672Y0103412D01*
X0063563Y0103387D01*
X0063453Y0103367D01*
X0063342Y0103350D01*
X0063231Y0103337D01*
X0063120Y0103328D01*
X0063008Y0103323D01*
X0062896Y0103322D01*
X0062784Y0103325D01*
X0062673Y0103332D01*
X0062561Y0103343D01*
X0062451Y0103358D01*
X0062340Y0103377D01*
X0062231Y0103399D01*
X0062122Y0103426D01*
X0062015Y0103456D01*
X0061908Y0103490D01*
X0061803Y0103528D01*
X0061699Y0103570D01*
X0061597Y0103615D01*
X0061496Y0103664D01*
X0061398Y0103716D01*
X0061301Y0103772D01*
X0061206Y0103832D01*
X0061113Y0103894D01*
X0061023Y0103960D01*
X0060935Y0104029D01*
X0060850Y0104101D01*
X0060767Y0104177D01*
X0060687Y0104255D01*
X0060609Y0104335D01*
X0060535Y0104419D01*
X0060464Y0104505D01*
X0060395Y0104593D01*
X0060330Y0104684D01*
X0060269Y0104778D01*
X0060210Y0104873D01*
X0060155Y0104970D01*
X0060104Y0105069D01*
X0060056Y0105170D01*
X0060011Y0105273D01*
X0059970Y0105377D01*
X0059933Y0105483D01*
X0059900Y0105589D01*
X0059871Y0105697D01*
X0059845Y0105806D01*
X0059823Y0105916D01*
X0059806Y0106026D01*
X0059792Y0106137D01*
X0059782Y0106249D01*
X0059776Y0106360D01*
X0059774Y0106472D01*
D11*
X0012612Y0010350D03*
D12*
X0022853Y0010183D03*
X0025412Y0010183D03*
X0027971Y0010183D03*
X0030530Y0010183D03*
X0033089Y0010183D03*
X0035648Y0010183D03*
X0038207Y0010183D03*
X0040766Y0010183D03*
X0043325Y0010183D03*
X0045885Y0010183D03*
X0048444Y0010183D03*
X0051003Y0010183D03*
X0053562Y0010183D03*
X0056121Y0010183D03*
X0056121Y0033017D03*
X0053562Y0033017D03*
X0051003Y0033017D03*
X0048444Y0033017D03*
X0045885Y0033017D03*
X0043325Y0033017D03*
X0040766Y0033017D03*
X0038207Y0033017D03*
X0035648Y0033017D03*
X0033089Y0033017D03*
X0030530Y0033017D03*
X0027971Y0033017D03*
X0025412Y0033017D03*
X0022853Y0033017D03*
D13*
X0013237Y0034946D03*
X0013237Y0028254D03*
X0013328Y0046600D03*
X0020021Y0046600D03*
X0020021Y0056600D03*
X0013328Y0056600D03*
X0064799Y0029009D03*
X0064799Y0022316D03*
D14*
X0020021Y0066600D03*
X0013328Y0066600D03*
D15*
X0080424Y0026912D03*
X0080424Y0021912D03*
X0080424Y0016913D03*
X0080424Y0011912D03*
X0080424Y0006912D03*
D16*
X0082924Y0081850D03*
X0062924Y0081850D03*
X0042924Y0081850D03*
D17*
X0027299Y0066600D03*
X0027299Y0056600D03*
X0027299Y0046600D03*
X0072299Y0046600D03*
X0072299Y0056600D03*
X0072299Y0066600D03*
D18*
X0070112Y0063400D02*
X0075796Y0063400D01*
X0076499Y0064103D01*
X0076499Y0069097D01*
X0075796Y0069800D01*
X0070112Y0069800D01*
X0070112Y0073163D01*
X0068449Y0073163D01*
X0068449Y0074678D01*
X0069124Y0075353D01*
X0069124Y0088347D01*
X0068421Y0089050D01*
X0057427Y0089050D01*
X0056724Y0088347D01*
X0056724Y0075353D01*
X0057427Y0074650D01*
X0063649Y0074650D01*
X0063649Y0073163D01*
X0032924Y0073163D01*
X0032924Y0106287D01*
X0040699Y0106334D01*
X0040699Y0105937D01*
X0041637Y0105000D01*
X0041949Y0104687D01*
X0042887Y0103750D01*
X0058929Y0103750D01*
X0060234Y0102446D01*
X0061980Y0101722D01*
X0063869Y0101722D01*
X0065615Y0102446D01*
X0066919Y0103750D01*
X0082887Y0103750D01*
X0083199Y0103437D01*
X0083199Y0082450D01*
X0082324Y0082450D01*
X0082324Y0081250D01*
X0076324Y0081250D01*
X0076324Y0075639D01*
X0076433Y0075232D01*
X0076644Y0074868D01*
X0076942Y0074570D01*
X0077307Y0074359D01*
X0077714Y0074250D01*
X0082324Y0074250D01*
X0082324Y0081250D01*
X0083199Y0081250D01*
X0083199Y0046885D01*
X0080623Y0045818D01*
X0079843Y0045037D01*
X0076899Y0045037D01*
X0076899Y0046200D01*
X0072699Y0046200D01*
X0072699Y0047000D01*
X0071899Y0047000D01*
X0071899Y0050200D01*
X0070112Y0050200D01*
X0070112Y0053400D01*
X0075796Y0053400D01*
X0076499Y0054103D01*
X0076499Y0059097D01*
X0075796Y0059800D01*
X0070112Y0059800D01*
X0070112Y0063400D01*
X0070112Y0062349D02*
X0083199Y0062349D01*
X0083199Y0061151D02*
X0070112Y0061151D01*
X0070112Y0059952D02*
X0083199Y0059952D01*
X0083199Y0058754D02*
X0076499Y0058754D01*
X0076499Y0057555D02*
X0083199Y0057555D01*
X0083199Y0056357D02*
X0076499Y0056357D01*
X0076499Y0055158D02*
X0083199Y0055158D01*
X0083199Y0053960D02*
X0076356Y0053960D01*
X0075510Y0050200D02*
X0072699Y0050200D01*
X0072699Y0047000D01*
X0076899Y0047000D01*
X0076899Y0048811D01*
X0076790Y0049218D01*
X0076580Y0049582D01*
X0076282Y0049880D01*
X0075917Y0050091D01*
X0075510Y0050200D01*
X0076804Y0049166D02*
X0083199Y0049166D01*
X0083199Y0050364D02*
X0070112Y0050364D01*
X0070112Y0051563D02*
X0083199Y0051563D01*
X0083199Y0052761D02*
X0070112Y0052761D01*
X0068312Y0052761D02*
X0026496Y0052761D01*
X0026257Y0053000D02*
X0026899Y0053000D01*
X0026899Y0056200D01*
X0027699Y0056200D01*
X0027699Y0053000D01*
X0030510Y0053000D01*
X0030917Y0053109D01*
X0031282Y0053320D01*
X0031580Y0053618D01*
X0031790Y0053982D01*
X0031899Y0054389D01*
X0031899Y0056200D01*
X0027699Y0056200D01*
X0027699Y0057000D01*
X0026899Y0057000D01*
X0026899Y0060200D01*
X0024089Y0060200D01*
X0023682Y0060091D01*
X0023317Y0059880D01*
X0023019Y0059582D01*
X0022964Y0059487D01*
X0022486Y0059965D01*
X0017555Y0059965D01*
X0016852Y0059262D01*
X0016852Y0053938D01*
X0017555Y0053235D01*
X0018221Y0053235D01*
X0018221Y0051883D01*
X0019249Y0050854D01*
X0020138Y0049965D01*
X0017555Y0049965D01*
X0016852Y0049262D01*
X0016852Y0043938D01*
X0017555Y0043235D01*
X0018221Y0043235D01*
X0018221Y0040008D01*
X0019874Y0038354D01*
X0020929Y0037300D01*
X0044679Y0037300D01*
X0045399Y0036580D01*
X0045176Y0036580D01*
X0045095Y0036660D01*
X0044730Y0036870D01*
X0044324Y0036980D01*
X0043326Y0036980D01*
X0043326Y0033017D01*
X0043326Y0029055D01*
X0044085Y0029055D01*
X0044085Y0024398D01*
X0043287Y0023600D01*
X0035375Y0023600D01*
X0034689Y0024285D01*
X0034689Y0029455D01*
X0036357Y0029455D01*
X0036438Y0029375D01*
X0036802Y0029164D01*
X0037209Y0029055D01*
X0038207Y0029055D01*
X0038207Y0033017D01*
X0038207Y0033017D01*
X0038207Y0029055D01*
X0039205Y0029055D01*
X0039487Y0029131D01*
X0039768Y0029055D01*
X0040766Y0029055D01*
X0040766Y0033017D01*
X0038208Y0033017D01*
X0038208Y0033017D01*
X0040595Y0033017D01*
X0040766Y0033017D01*
X0040766Y0033017D01*
X0040766Y0033017D01*
X0040766Y0029055D01*
X0041764Y0029055D01*
X0042046Y0029131D01*
X0042327Y0029055D01*
X0043325Y0029055D01*
X0043325Y0033017D01*
X0040767Y0033017D01*
X0040767Y0033017D01*
X0043154Y0033017D01*
X0043325Y0033017D01*
X0043325Y0033017D01*
X0043326Y0033017D01*
X0043325Y0033017D01*
X0043325Y0036980D01*
X0042327Y0036980D01*
X0042046Y0036904D01*
X0041764Y0036980D01*
X0040766Y0036980D01*
X0039768Y0036980D01*
X0039487Y0036904D01*
X0039205Y0036980D01*
X0038207Y0036980D01*
X0037209Y0036980D01*
X0036802Y0036870D01*
X0036438Y0036660D01*
X0036357Y0036580D01*
X0029821Y0036580D01*
X0029741Y0036660D01*
X0029376Y0036870D01*
X0028969Y0036980D01*
X0027971Y0036980D01*
X0026973Y0036980D01*
X0026692Y0036904D01*
X0026410Y0036980D01*
X0025412Y0036980D01*
X0024414Y0036980D01*
X0024007Y0036870D01*
X0023642Y0036660D01*
X0023562Y0036580D01*
X0021569Y0036580D01*
X0020866Y0035877D01*
X0020866Y0030158D01*
X0021253Y0029771D01*
X0021253Y0024379D01*
X0020474Y0023600D01*
X0016937Y0023600D01*
X0016262Y0024275D01*
X0016262Y0025448D01*
X0016405Y0025591D01*
X0016405Y0030916D01*
X0015955Y0031366D01*
X0016188Y0031501D01*
X0016486Y0031799D01*
X0016696Y0032164D01*
X0016805Y0032570D01*
X0016805Y0034562D01*
X0013621Y0034562D01*
X0013621Y0035331D01*
X0012853Y0035331D01*
X0012853Y0038712D01*
X0011058Y0038712D01*
X0010651Y0038603D01*
X0010286Y0038392D01*
X0009988Y0038094D01*
X0009837Y0037832D01*
X0009837Y0106600D01*
X0031123Y0106600D01*
X0031124Y0106283D01*
X0031124Y0072417D01*
X0032179Y0071363D01*
X0063649Y0071363D01*
X0063649Y0068623D01*
X0064015Y0067741D01*
X0064690Y0067065D01*
X0067190Y0064565D01*
X0068072Y0064200D01*
X0068099Y0064200D01*
X0068099Y0064103D01*
X0068312Y0063890D01*
X0068312Y0059310D01*
X0068099Y0059097D01*
X0068099Y0054103D01*
X0068312Y0053890D01*
X0068312Y0049310D01*
X0068099Y0049097D01*
X0068099Y0044103D01*
X0068802Y0043400D01*
X0069204Y0043400D01*
X0069366Y0043237D01*
X0083199Y0043237D01*
X0083199Y0029687D01*
X0076778Y0029687D01*
X0076075Y0028984D01*
X0076075Y0028512D01*
X0075150Y0028512D01*
X0075037Y0028625D01*
X0075037Y0035813D01*
X0072650Y0038200D01*
X0056637Y0038200D01*
X0055699Y0037263D01*
X0055183Y0036746D01*
X0054967Y0036870D01*
X0054560Y0036980D01*
X0053562Y0036980D01*
X0053562Y0033017D01*
X0053562Y0029055D01*
X0054560Y0029055D01*
X0054967Y0029164D01*
X0055332Y0029375D01*
X0055412Y0029455D01*
X0057405Y0029455D01*
X0058108Y0030158D01*
X0058108Y0035000D01*
X0071324Y0035000D01*
X0071837Y0034487D01*
X0071837Y0027300D01*
X0072774Y0026363D01*
X0072887Y0026250D01*
X0073824Y0025312D01*
X0076075Y0025312D01*
X0076075Y0024841D01*
X0076503Y0024412D01*
X0076075Y0023984D01*
X0076075Y0023512D01*
X0076012Y0023512D01*
X0075074Y0022575D01*
X0071012Y0018512D01*
X0053512Y0018512D01*
X0052574Y0017575D01*
X0049403Y0014403D01*
X0049403Y0013745D01*
X0047485Y0013745D01*
X0047485Y0018897D01*
X0048187Y0019600D01*
X0061685Y0019600D01*
X0062334Y0018951D01*
X0067265Y0018951D01*
X0067968Y0019654D01*
X0067968Y0024978D01*
X0067517Y0025429D01*
X0067750Y0025563D01*
X0068048Y0025861D01*
X0068259Y0026226D01*
X0068368Y0026633D01*
X0068368Y0028625D01*
X0065184Y0028625D01*
X0065184Y0029393D01*
X0068368Y0029393D01*
X0068368Y0031385D01*
X0068259Y0031792D01*
X0068048Y0032157D01*
X0067750Y0032455D01*
X0067385Y0032665D01*
X0066979Y0032774D01*
X0065184Y0032774D01*
X0065184Y0029393D01*
X0064415Y0029393D01*
X0064415Y0028625D01*
X0061231Y0028625D01*
X0061231Y0026633D01*
X0061340Y0026226D01*
X0061551Y0025861D01*
X0061848Y0025563D01*
X0062081Y0025429D01*
X0061631Y0024978D01*
X0061631Y0023600D01*
X0048187Y0023600D01*
X0047685Y0024103D01*
X0047685Y0029455D01*
X0051712Y0029455D01*
X0051792Y0029375D01*
X0052157Y0029164D01*
X0052564Y0029055D01*
X0053562Y0029055D01*
X0053562Y0033017D01*
X0053562Y0033017D01*
X0053562Y0033017D01*
X0053562Y0036980D01*
X0052803Y0036980D01*
X0052803Y0037705D01*
X0047107Y0043400D01*
X0028982Y0043400D01*
X0030796Y0043400D01*
X0031499Y0044103D01*
X0031499Y0049097D01*
X0030796Y0049800D01*
X0028474Y0049800D01*
X0028474Y0050783D01*
X0027420Y0051837D01*
X0026257Y0053000D01*
X0026899Y0053960D02*
X0027699Y0053960D01*
X0027699Y0055158D02*
X0026899Y0055158D01*
X0027699Y0056357D02*
X0068099Y0056357D01*
X0068099Y0057555D02*
X0031899Y0057555D01*
X0031899Y0057000D02*
X0031899Y0058811D01*
X0031790Y0059218D01*
X0031580Y0059582D01*
X0031282Y0059880D01*
X0030917Y0060091D01*
X0030510Y0060200D01*
X0027699Y0060200D01*
X0027699Y0057000D01*
X0031899Y0057000D01*
X0031899Y0055158D02*
X0068099Y0055158D01*
X0068243Y0053960D02*
X0031777Y0053960D01*
X0031899Y0058754D02*
X0068099Y0058754D01*
X0068312Y0059952D02*
X0031157Y0059952D01*
X0030796Y0063400D02*
X0031499Y0064103D01*
X0031499Y0069097D01*
X0030796Y0069800D01*
X0023802Y0069800D01*
X0023227Y0069225D01*
X0022683Y0069768D01*
X0017358Y0069768D01*
X0016674Y0069084D01*
X0015990Y0069768D01*
X0010666Y0069768D01*
X0009963Y0069066D01*
X0009963Y0064134D01*
X0010666Y0063431D01*
X0011528Y0063431D01*
X0011528Y0059965D01*
X0010862Y0059965D01*
X0010159Y0059262D01*
X0010159Y0053938D01*
X0010862Y0053235D01*
X0011528Y0053235D01*
X0011528Y0049965D01*
X0010862Y0049965D01*
X0010159Y0049262D01*
X0010159Y0043938D01*
X0010862Y0043235D01*
X0015794Y0043235D01*
X0016496Y0043938D01*
X0016496Y0049262D01*
X0015794Y0049965D01*
X0015128Y0049965D01*
X0015128Y0053235D01*
X0015794Y0053235D01*
X0016496Y0053938D01*
X0016496Y0059262D01*
X0015794Y0059965D01*
X0015128Y0059965D01*
X0015128Y0063431D01*
X0015990Y0063431D01*
X0016674Y0064116D01*
X0017358Y0063431D01*
X0022683Y0063431D01*
X0023227Y0063975D01*
X0023802Y0063400D01*
X0030796Y0063400D01*
X0030944Y0063548D02*
X0068312Y0063548D01*
X0068312Y0062349D02*
X0015128Y0062349D01*
X0015128Y0061151D02*
X0068312Y0061151D01*
X0067009Y0064746D02*
X0031499Y0064746D01*
X0031499Y0065945D02*
X0065810Y0065945D01*
X0064612Y0067143D02*
X0031499Y0067143D01*
X0031499Y0068342D02*
X0063766Y0068342D01*
X0063649Y0069540D02*
X0031056Y0069540D01*
X0031604Y0071937D02*
X0009837Y0071937D01*
X0009837Y0070739D02*
X0063649Y0070739D01*
X0063649Y0074334D02*
X0048450Y0074334D01*
X0048542Y0074359D02*
X0048907Y0074570D01*
X0049205Y0074868D01*
X0049415Y0075232D01*
X0049524Y0075639D01*
X0049524Y0081250D01*
X0043524Y0081250D01*
X0043524Y0074250D01*
X0048135Y0074250D01*
X0048542Y0074359D01*
X0049496Y0075533D02*
X0056724Y0075533D01*
X0056724Y0076732D02*
X0049524Y0076732D01*
X0049524Y0077930D02*
X0056724Y0077930D01*
X0056724Y0079129D02*
X0049524Y0079129D01*
X0049524Y0080327D02*
X0056724Y0080327D01*
X0056724Y0081526D02*
X0043524Y0081526D01*
X0043524Y0081250D02*
X0043524Y0082450D01*
X0042324Y0082450D01*
X0042324Y0081250D01*
X0036324Y0081250D01*
X0036324Y0075639D01*
X0036433Y0075232D01*
X0036644Y0074868D01*
X0036942Y0074570D01*
X0037307Y0074359D01*
X0037714Y0074250D01*
X0042324Y0074250D01*
X0042324Y0081250D01*
X0043524Y0081250D01*
X0043524Y0080327D02*
X0042324Y0080327D01*
X0042324Y0079129D02*
X0043524Y0079129D01*
X0043524Y0077930D02*
X0042324Y0077930D01*
X0042324Y0076732D02*
X0043524Y0076732D01*
X0043524Y0075533D02*
X0042324Y0075533D01*
X0042324Y0074334D02*
X0043524Y0074334D01*
X0037398Y0074334D02*
X0032924Y0074334D01*
X0032924Y0075533D02*
X0036353Y0075533D01*
X0036324Y0076732D02*
X0032924Y0076732D01*
X0032924Y0077930D02*
X0036324Y0077930D01*
X0036324Y0079129D02*
X0032924Y0079129D01*
X0032924Y0080327D02*
X0036324Y0080327D01*
X0036324Y0082450D02*
X0042324Y0082450D01*
X0042324Y0089450D01*
X0037714Y0089450D01*
X0037307Y0089341D01*
X0036942Y0089130D01*
X0036644Y0088832D01*
X0036433Y0088468D01*
X0036324Y0088061D01*
X0036324Y0082450D01*
X0036324Y0082724D02*
X0032924Y0082724D01*
X0032924Y0081526D02*
X0042324Y0081526D01*
X0042324Y0082724D02*
X0043524Y0082724D01*
X0043524Y0082450D02*
X0043524Y0089450D01*
X0048135Y0089450D01*
X0048542Y0089341D01*
X0048907Y0089130D01*
X0049205Y0088832D01*
X0049415Y0088468D01*
X0049524Y0088061D01*
X0049524Y0082450D01*
X0043524Y0082450D01*
X0043524Y0083923D02*
X0042324Y0083923D01*
X0042324Y0085121D02*
X0043524Y0085121D01*
X0043524Y0086320D02*
X0042324Y0086320D01*
X0042324Y0087518D02*
X0043524Y0087518D01*
X0043524Y0088717D02*
X0042324Y0088717D01*
X0036577Y0088717D02*
X0032924Y0088717D01*
X0032924Y0089915D02*
X0083199Y0089915D01*
X0082324Y0089450D02*
X0077714Y0089450D01*
X0077307Y0089341D01*
X0076942Y0089130D01*
X0076644Y0088832D01*
X0076433Y0088468D01*
X0076324Y0088061D01*
X0076324Y0082450D01*
X0082324Y0082450D01*
X0082324Y0089450D01*
X0082324Y0088717D02*
X0083199Y0088717D01*
X0083199Y0087518D02*
X0082324Y0087518D01*
X0082324Y0086320D02*
X0083199Y0086320D01*
X0083199Y0085121D02*
X0082324Y0085121D01*
X0082324Y0083923D02*
X0083199Y0083923D01*
X0083199Y0082724D02*
X0082324Y0082724D01*
X0082324Y0081526D02*
X0069124Y0081526D01*
X0069124Y0082724D02*
X0076324Y0082724D01*
X0076324Y0083923D02*
X0069124Y0083923D01*
X0069124Y0085121D02*
X0076324Y0085121D01*
X0076324Y0086320D02*
X0069124Y0086320D01*
X0069124Y0087518D02*
X0076324Y0087518D01*
X0076577Y0088717D02*
X0068755Y0088717D01*
X0069124Y0080327D02*
X0076324Y0080327D01*
X0076324Y0079129D02*
X0069124Y0079129D01*
X0069124Y0077930D02*
X0076324Y0077930D01*
X0076324Y0076732D02*
X0069124Y0076732D01*
X0069124Y0075533D02*
X0076353Y0075533D01*
X0077398Y0074334D02*
X0068449Y0074334D01*
X0070112Y0073136D02*
X0083199Y0073136D01*
X0083199Y0074334D02*
X0082324Y0074334D01*
X0082324Y0075533D02*
X0083199Y0075533D01*
X0083199Y0076732D02*
X0082324Y0076732D01*
X0082324Y0077930D02*
X0083199Y0077930D01*
X0083199Y0079129D02*
X0082324Y0079129D01*
X0082324Y0080327D02*
X0083199Y0080327D01*
X0083199Y0071937D02*
X0070112Y0071937D01*
X0070112Y0070739D02*
X0083199Y0070739D01*
X0083199Y0069540D02*
X0076056Y0069540D01*
X0076499Y0068342D02*
X0083199Y0068342D01*
X0083199Y0067143D02*
X0076499Y0067143D01*
X0076499Y0065945D02*
X0083199Y0065945D01*
X0083199Y0064746D02*
X0076499Y0064746D01*
X0075944Y0063548D02*
X0083199Y0063548D01*
X0072699Y0049166D02*
X0071899Y0049166D01*
X0071899Y0047967D02*
X0072699Y0047967D01*
X0072699Y0046769D02*
X0082918Y0046769D01*
X0083199Y0047967D02*
X0076899Y0047967D01*
X0076899Y0045570D02*
X0080375Y0045570D01*
X0083199Y0043173D02*
X0047334Y0043173D01*
X0048533Y0041975D02*
X0083199Y0041975D01*
X0083199Y0040776D02*
X0049731Y0040776D01*
X0050930Y0039578D02*
X0083199Y0039578D01*
X0083199Y0038379D02*
X0052128Y0038379D01*
X0052803Y0037181D02*
X0055617Y0037181D01*
X0053562Y0035982D02*
X0053562Y0035982D01*
X0053562Y0034784D02*
X0053562Y0034784D01*
X0053562Y0033585D02*
X0053562Y0033585D01*
X0053562Y0032387D02*
X0053562Y0032387D01*
X0053562Y0031188D02*
X0053562Y0031188D01*
X0053562Y0029990D02*
X0053562Y0029990D01*
X0051003Y0033017D02*
X0051003Y0036959D01*
X0046362Y0041600D01*
X0028237Y0041600D01*
X0026674Y0043162D01*
X0026674Y0046600D01*
X0027299Y0046600D01*
X0026674Y0046600D02*
X0026674Y0050037D01*
X0025112Y0051600D01*
X0021049Y0051600D01*
X0020021Y0052629D01*
X0020021Y0056600D01*
X0016852Y0056357D02*
X0016496Y0056357D01*
X0016496Y0057555D02*
X0016852Y0057555D01*
X0016852Y0058754D02*
X0016496Y0058754D01*
X0015806Y0059952D02*
X0017542Y0059952D01*
X0017242Y0063548D02*
X0016107Y0063548D01*
X0013328Y0066600D02*
X0013328Y0056600D01*
X0013328Y0046600D01*
X0016496Y0046769D02*
X0016852Y0046769D01*
X0016852Y0047967D02*
X0016496Y0047967D01*
X0016496Y0049166D02*
X0016852Y0049166D01*
X0015128Y0050364D02*
X0019740Y0050364D01*
X0018541Y0051563D02*
X0015128Y0051563D01*
X0015128Y0052761D02*
X0018221Y0052761D01*
X0016852Y0053960D02*
X0016496Y0053960D01*
X0016496Y0055158D02*
X0016852Y0055158D01*
X0011528Y0052761D02*
X0009837Y0052761D01*
X0009837Y0051563D02*
X0011528Y0051563D01*
X0011528Y0050364D02*
X0009837Y0050364D01*
X0009837Y0049166D02*
X0010159Y0049166D01*
X0010159Y0047967D02*
X0009837Y0047967D01*
X0009837Y0046769D02*
X0010159Y0046769D01*
X0010159Y0045570D02*
X0009837Y0045570D01*
X0009837Y0044372D02*
X0010159Y0044372D01*
X0009837Y0043173D02*
X0018221Y0043173D01*
X0018221Y0041975D02*
X0009837Y0041975D01*
X0009837Y0040776D02*
X0018221Y0040776D01*
X0018651Y0039578D02*
X0009837Y0039578D01*
X0009837Y0038379D02*
X0010273Y0038379D01*
X0012853Y0038379D02*
X0013621Y0038379D01*
X0013621Y0038712D02*
X0013621Y0035331D01*
X0016805Y0035331D01*
X0016805Y0037322D01*
X0016696Y0037729D01*
X0016486Y0038094D01*
X0016188Y0038392D01*
X0015823Y0038603D01*
X0015416Y0038712D01*
X0013621Y0038712D01*
X0013621Y0037181D02*
X0012853Y0037181D01*
X0012853Y0035982D02*
X0013621Y0035982D01*
X0013621Y0034784D02*
X0020866Y0034784D01*
X0020866Y0033585D02*
X0016805Y0033585D01*
X0016756Y0032387D02*
X0020866Y0032387D01*
X0020866Y0031188D02*
X0016133Y0031188D01*
X0016405Y0029990D02*
X0021034Y0029990D01*
X0021253Y0028791D02*
X0016405Y0028791D01*
X0016405Y0027593D02*
X0021253Y0027593D01*
X0021253Y0026394D02*
X0016405Y0026394D01*
X0016262Y0025196D02*
X0021253Y0025196D01*
X0020871Y0023997D02*
X0016540Y0023997D01*
X0016937Y0019600D02*
X0022974Y0019600D01*
X0023812Y0018762D01*
X0023812Y0014145D01*
X0022853Y0014145D01*
X0021855Y0014145D01*
X0021448Y0014036D01*
X0021083Y0013825D01*
X0020785Y0013527D01*
X0020575Y0013162D01*
X0020466Y0012756D01*
X0020466Y0010183D01*
X0022853Y0010183D01*
X0022853Y0014145D01*
X0022853Y0010183D01*
X0022853Y0010183D01*
X0022853Y0010183D01*
X0020466Y0010183D01*
X0020466Y0007610D01*
X0020575Y0007203D01*
X0020785Y0006838D01*
X0021083Y0006540D01*
X0021448Y0006330D01*
X0021855Y0006220D01*
X0022853Y0006220D01*
X0023851Y0006220D01*
X0024258Y0006330D01*
X0024623Y0006540D01*
X0024703Y0006620D01*
X0028680Y0006620D01*
X0028760Y0006540D01*
X0029125Y0006330D01*
X0029532Y0006220D01*
X0030530Y0006220D01*
X0030530Y0010183D01*
X0030530Y0014145D01*
X0029532Y0014145D01*
X0029125Y0014036D01*
X0028760Y0013825D01*
X0028680Y0013745D01*
X0027012Y0013745D01*
X0027012Y0018737D01*
X0027024Y0018750D01*
X0027875Y0019600D01*
X0030474Y0019600D01*
X0031489Y0018585D01*
X0031489Y0014145D01*
X0030530Y0014145D01*
X0030530Y0010183D01*
X0030530Y0010183D01*
X0030530Y0010183D01*
X0030530Y0006220D01*
X0031528Y0006220D01*
X0031935Y0006330D01*
X0032300Y0006540D01*
X0032380Y0006620D01*
X0034048Y0006620D01*
X0034048Y0005401D01*
X0034374Y0005075D01*
X0016312Y0005075D01*
X0016312Y0015847D01*
X0016262Y0015897D01*
X0016262Y0018925D01*
X0016937Y0019600D01*
X0016540Y0019203D02*
X0023371Y0019203D01*
X0023812Y0018004D02*
X0016262Y0018004D01*
X0016262Y0016806D02*
X0023812Y0016806D01*
X0023812Y0015607D02*
X0016312Y0015607D01*
X0016312Y0014409D02*
X0023812Y0014409D01*
X0022853Y0013210D02*
X0022853Y0013210D01*
X0022853Y0012012D02*
X0022853Y0012012D01*
X0022853Y0010813D02*
X0022853Y0010813D01*
X0022853Y0010183D02*
X0022853Y0006220D01*
X0022853Y0010183D01*
X0022853Y0010183D01*
X0022853Y0009615D02*
X0022853Y0009615D01*
X0022853Y0008416D02*
X0022853Y0008416D01*
X0022853Y0007218D02*
X0022853Y0007218D01*
X0020571Y0007218D02*
X0016312Y0007218D01*
X0016312Y0008416D02*
X0020466Y0008416D01*
X0020466Y0009615D02*
X0016312Y0009615D01*
X0016312Y0010813D02*
X0020466Y0010813D01*
X0020466Y0012012D02*
X0016312Y0012012D01*
X0016312Y0013210D02*
X0020602Y0013210D01*
X0016312Y0006019D02*
X0034048Y0006019D01*
X0030530Y0007218D02*
X0030530Y0007218D01*
X0030530Y0008416D02*
X0030530Y0008416D01*
X0030530Y0009615D02*
X0030530Y0009615D01*
X0030530Y0010813D02*
X0030530Y0010813D01*
X0030530Y0012012D02*
X0030530Y0012012D01*
X0030530Y0013210D02*
X0030530Y0013210D01*
X0031489Y0014409D02*
X0027012Y0014409D01*
X0027012Y0015607D02*
X0031489Y0015607D01*
X0031489Y0016806D02*
X0027012Y0016806D01*
X0027012Y0018004D02*
X0031489Y0018004D01*
X0030871Y0019203D02*
X0027478Y0019203D01*
X0025375Y0023600D02*
X0024453Y0024522D01*
X0024453Y0029055D01*
X0025412Y0029055D01*
X0025412Y0033017D01*
X0025412Y0033017D01*
X0025412Y0029055D01*
X0026410Y0029055D01*
X0026692Y0029131D01*
X0026973Y0029055D01*
X0027971Y0029055D01*
X0027971Y0033017D01*
X0027971Y0033017D01*
X0025412Y0033017D01*
X0025412Y0033017D01*
X0027799Y0033017D01*
X0027971Y0033017D01*
X0027971Y0033017D01*
X0027971Y0029055D01*
X0028969Y0029055D01*
X0029376Y0029164D01*
X0029741Y0029375D01*
X0029821Y0029455D01*
X0031489Y0029455D01*
X0031489Y0024615D01*
X0030474Y0023600D01*
X0025375Y0023600D01*
X0024978Y0023997D02*
X0030871Y0023997D01*
X0031489Y0025196D02*
X0024453Y0025196D01*
X0024453Y0026394D02*
X0031489Y0026394D01*
X0031489Y0027593D02*
X0024453Y0027593D01*
X0024453Y0028791D02*
X0031489Y0028791D01*
X0027971Y0029990D02*
X0027971Y0029990D01*
X0027971Y0031188D02*
X0027971Y0031188D01*
X0027971Y0032387D02*
X0027971Y0032387D01*
X0027971Y0033017D02*
X0027971Y0036980D01*
X0027971Y0033017D01*
X0027971Y0033017D01*
X0027971Y0033585D02*
X0027971Y0033585D01*
X0027971Y0034784D02*
X0027971Y0034784D01*
X0027971Y0035982D02*
X0027971Y0035982D01*
X0025412Y0035982D02*
X0025412Y0035982D01*
X0025412Y0036980D02*
X0025412Y0033017D01*
X0025412Y0036980D01*
X0025412Y0034784D02*
X0025412Y0034784D01*
X0025412Y0033585D02*
X0025412Y0033585D01*
X0025412Y0033017D02*
X0025412Y0033017D01*
X0025412Y0032387D02*
X0025412Y0032387D01*
X0025412Y0031188D02*
X0025412Y0031188D01*
X0025412Y0029990D02*
X0025412Y0029990D01*
X0020971Y0035982D02*
X0016805Y0035982D01*
X0016805Y0037181D02*
X0044798Y0037181D01*
X0045424Y0039100D02*
X0048444Y0036081D01*
X0048444Y0033017D01*
X0045885Y0033017D02*
X0045885Y0021748D01*
X0045737Y0021600D01*
X0047790Y0023997D02*
X0061631Y0023997D01*
X0061848Y0025196D02*
X0047685Y0025196D01*
X0047685Y0026394D02*
X0061295Y0026394D01*
X0061231Y0027593D02*
X0047685Y0027593D01*
X0047685Y0028791D02*
X0064415Y0028791D01*
X0064415Y0029393D02*
X0061231Y0029393D01*
X0061231Y0031385D01*
X0061340Y0031792D01*
X0061551Y0032157D01*
X0061848Y0032455D01*
X0062213Y0032665D01*
X0062620Y0032774D01*
X0064415Y0032774D01*
X0064415Y0029393D01*
X0064415Y0029990D02*
X0065184Y0029990D01*
X0065184Y0031188D02*
X0064415Y0031188D01*
X0064415Y0032387D02*
X0065184Y0032387D01*
X0067818Y0032387D02*
X0071837Y0032387D01*
X0071837Y0033585D02*
X0058108Y0033585D01*
X0058108Y0032387D02*
X0061780Y0032387D01*
X0061231Y0031188D02*
X0058108Y0031188D01*
X0057940Y0029990D02*
X0061231Y0029990D01*
X0058108Y0034784D02*
X0071541Y0034784D01*
X0073669Y0037181D02*
X0083199Y0037181D01*
X0083199Y0035982D02*
X0074867Y0035982D01*
X0075037Y0034784D02*
X0083199Y0034784D01*
X0083199Y0033585D02*
X0075037Y0033585D01*
X0075037Y0032387D02*
X0083199Y0032387D01*
X0083199Y0031188D02*
X0075037Y0031188D01*
X0075037Y0029990D02*
X0083199Y0029990D01*
X0076075Y0028791D02*
X0075037Y0028791D01*
X0072743Y0026394D02*
X0068304Y0026394D01*
X0068368Y0027593D02*
X0071837Y0027593D01*
X0071837Y0028791D02*
X0065184Y0028791D01*
X0068368Y0029990D02*
X0071837Y0029990D01*
X0071837Y0031188D02*
X0068368Y0031188D01*
X0067751Y0025196D02*
X0076075Y0025196D01*
X0076087Y0023997D02*
X0067968Y0023997D01*
X0067968Y0022799D02*
X0075298Y0022799D01*
X0075074Y0022575D02*
X0075074Y0022575D01*
X0074099Y0021600D02*
X0067968Y0021600D01*
X0067968Y0020401D02*
X0072901Y0020401D01*
X0071702Y0019203D02*
X0067517Y0019203D01*
X0062082Y0019203D02*
X0047790Y0019203D01*
X0047485Y0018004D02*
X0053004Y0018004D01*
X0051805Y0016806D02*
X0047485Y0016806D01*
X0047485Y0015607D02*
X0050607Y0015607D01*
X0049408Y0014409D02*
X0047485Y0014409D01*
X0044285Y0014409D02*
X0040007Y0014409D01*
X0040007Y0014145D02*
X0040007Y0018920D01*
X0040687Y0019600D01*
X0043287Y0019600D01*
X0044285Y0018602D01*
X0044285Y0013745D01*
X0042617Y0013745D01*
X0042536Y0013825D01*
X0042171Y0014036D01*
X0041764Y0014145D01*
X0040766Y0014145D01*
X0040007Y0014145D01*
X0040766Y0014145D02*
X0040766Y0010183D01*
X0040766Y0010183D01*
X0040766Y0014145D01*
X0040766Y0013210D02*
X0040766Y0013210D01*
X0040766Y0012012D02*
X0040766Y0012012D01*
X0040766Y0010813D02*
X0040766Y0010813D01*
X0038207Y0010183D02*
X0038207Y0021570D01*
X0038237Y0021600D01*
X0040290Y0019203D02*
X0043684Y0019203D01*
X0044285Y0018004D02*
X0040007Y0018004D01*
X0040007Y0016806D02*
X0044285Y0016806D01*
X0044285Y0015607D02*
X0040007Y0015607D01*
X0043684Y0023997D02*
X0034978Y0023997D01*
X0034689Y0025196D02*
X0044085Y0025196D01*
X0044085Y0026394D02*
X0034689Y0026394D01*
X0034689Y0027593D02*
X0044085Y0027593D01*
X0044085Y0028791D02*
X0034689Y0028791D01*
X0038207Y0029990D02*
X0038207Y0029990D01*
X0038207Y0031188D02*
X0038207Y0031188D01*
X0038207Y0032387D02*
X0038207Y0032387D01*
X0038207Y0033017D02*
X0038207Y0036980D01*
X0038207Y0033017D01*
X0038207Y0033017D01*
X0038207Y0033585D02*
X0038207Y0033585D01*
X0038207Y0034784D02*
X0038207Y0034784D01*
X0038207Y0035982D02*
X0038207Y0035982D01*
X0040766Y0035982D02*
X0040766Y0035982D01*
X0040766Y0036980D02*
X0040766Y0033017D01*
X0040766Y0036980D01*
X0040766Y0034784D02*
X0040766Y0034784D01*
X0040766Y0033585D02*
X0040766Y0033585D01*
X0040766Y0033017D02*
X0040766Y0033017D01*
X0040766Y0032387D02*
X0040766Y0032387D01*
X0040766Y0031188D02*
X0040766Y0031188D01*
X0040766Y0029990D02*
X0040766Y0029990D01*
X0043325Y0029990D02*
X0043326Y0029990D01*
X0043325Y0031188D02*
X0043326Y0031188D01*
X0043325Y0032387D02*
X0043326Y0032387D01*
X0043325Y0033585D02*
X0043326Y0033585D01*
X0043325Y0034784D02*
X0043326Y0034784D01*
X0043325Y0035982D02*
X0043326Y0035982D01*
X0045424Y0039100D02*
X0021674Y0039100D01*
X0020021Y0040754D01*
X0020021Y0046600D01*
X0016852Y0045570D02*
X0016496Y0045570D01*
X0016496Y0044372D02*
X0016852Y0044372D01*
X0016201Y0038379D02*
X0019850Y0038379D01*
X0028982Y0043400D02*
X0028982Y0043400D01*
X0031499Y0044372D02*
X0068099Y0044372D01*
X0068099Y0045570D02*
X0031499Y0045570D01*
X0031499Y0046769D02*
X0068099Y0046769D01*
X0068099Y0047967D02*
X0031499Y0047967D01*
X0031431Y0049166D02*
X0068168Y0049166D01*
X0068312Y0050364D02*
X0028474Y0050364D01*
X0027695Y0051563D02*
X0068312Y0051563D01*
X0056724Y0082724D02*
X0049524Y0082724D01*
X0049524Y0083923D02*
X0056724Y0083923D01*
X0056724Y0085121D02*
X0049524Y0085121D01*
X0049524Y0086320D02*
X0056724Y0086320D01*
X0056724Y0087518D02*
X0049524Y0087518D01*
X0049272Y0088717D02*
X0057094Y0088717D01*
X0061550Y0101900D02*
X0032924Y0101900D01*
X0032924Y0100702D02*
X0083199Y0100702D01*
X0083199Y0101900D02*
X0064298Y0101900D01*
X0066268Y0103099D02*
X0083199Y0103099D01*
X0083199Y0099503D02*
X0032924Y0099503D01*
X0032924Y0098305D02*
X0083199Y0098305D01*
X0083199Y0097106D02*
X0032924Y0097106D01*
X0032924Y0095908D02*
X0083199Y0095908D01*
X0083199Y0094709D02*
X0032924Y0094709D01*
X0032924Y0093511D02*
X0083199Y0093511D01*
X0083199Y0092312D02*
X0032924Y0092312D01*
X0032924Y0091114D02*
X0083199Y0091114D01*
X0059581Y0103099D02*
X0032924Y0103099D01*
X0032924Y0104297D02*
X0042339Y0104297D01*
X0041949Y0104687D02*
X0041949Y0104687D01*
X0041141Y0105496D02*
X0032924Y0105496D01*
X0031124Y0105496D02*
X0009837Y0105496D01*
X0009837Y0104297D02*
X0031124Y0104297D01*
X0031124Y0103099D02*
X0009837Y0103099D01*
X0009837Y0101900D02*
X0031124Y0101900D01*
X0031124Y0100702D02*
X0009837Y0100702D01*
X0009837Y0099503D02*
X0031124Y0099503D01*
X0031124Y0098305D02*
X0009837Y0098305D01*
X0009837Y0097106D02*
X0031124Y0097106D01*
X0031124Y0095908D02*
X0009837Y0095908D01*
X0009837Y0094709D02*
X0031124Y0094709D01*
X0031124Y0093511D02*
X0009837Y0093511D01*
X0009837Y0092312D02*
X0031124Y0092312D01*
X0031124Y0091114D02*
X0009837Y0091114D01*
X0009837Y0089915D02*
X0031124Y0089915D01*
X0031124Y0088717D02*
X0009837Y0088717D01*
X0009837Y0087518D02*
X0031124Y0087518D01*
X0031124Y0086320D02*
X0009837Y0086320D01*
X0009837Y0085121D02*
X0031124Y0085121D01*
X0031124Y0083923D02*
X0009837Y0083923D01*
X0009837Y0082724D02*
X0031124Y0082724D01*
X0031124Y0081526D02*
X0009837Y0081526D01*
X0009837Y0080327D02*
X0031124Y0080327D01*
X0031124Y0079129D02*
X0009837Y0079129D01*
X0009837Y0077930D02*
X0031124Y0077930D01*
X0031124Y0076732D02*
X0009837Y0076732D01*
X0009837Y0075533D02*
X0031124Y0075533D01*
X0031124Y0074334D02*
X0009837Y0074334D01*
X0009837Y0073136D02*
X0031124Y0073136D01*
X0027299Y0066600D02*
X0020021Y0066600D01*
X0022911Y0069540D02*
X0023543Y0069540D01*
X0023654Y0063548D02*
X0022800Y0063548D01*
X0022499Y0059952D02*
X0023442Y0059952D01*
X0026899Y0059952D02*
X0027699Y0059952D01*
X0027699Y0058754D02*
X0026899Y0058754D01*
X0026899Y0057555D02*
X0027699Y0057555D01*
X0017130Y0069540D02*
X0016218Y0069540D01*
X0010438Y0069540D02*
X0009837Y0069540D01*
X0009837Y0068342D02*
X0009963Y0068342D01*
X0009963Y0067143D02*
X0009837Y0067143D01*
X0009837Y0065945D02*
X0009963Y0065945D01*
X0009963Y0064746D02*
X0009837Y0064746D01*
X0009837Y0063548D02*
X0010549Y0063548D01*
X0009837Y0062349D02*
X0011528Y0062349D01*
X0011528Y0061151D02*
X0009837Y0061151D01*
X0009837Y0059952D02*
X0010849Y0059952D01*
X0010159Y0058754D02*
X0009837Y0058754D01*
X0009837Y0057555D02*
X0010159Y0057555D01*
X0010159Y0056357D02*
X0009837Y0056357D01*
X0009837Y0055158D02*
X0010159Y0055158D01*
X0010159Y0053960D02*
X0009837Y0053960D01*
X0032924Y0083923D02*
X0036324Y0083923D01*
X0036324Y0085121D02*
X0032924Y0085121D01*
X0032924Y0086320D02*
X0036324Y0086320D01*
X0036324Y0087518D02*
X0032924Y0087518D01*
D19*
X0007924Y0080350D03*
X0085112Y0039100D03*
D20*
X0070112Y0029100D03*
X0056674Y0026600D03*
X0053862Y0042850D03*
X0039487Y0026600D03*
X0041987Y0016600D03*
X0030424Y0026600D03*
X0029487Y0016600D03*
X0018237Y0010350D03*
X0019487Y0035350D03*
X0035112Y0056600D03*
X0026987Y0061600D03*
D21*
X0013237Y0028254D02*
X0013862Y0027629D01*
X0013862Y0021600D01*
X0013862Y0010350D01*
X0012612Y0010350D01*
X0068549Y0066600D02*
X0066049Y0069100D01*
X0066049Y0080038D01*
X0065737Y0080350D01*
X0062924Y0080350D01*
X0068549Y0066600D02*
X0072299Y0066600D01*
D22*
X0064799Y0022316D02*
X0064083Y0021600D01*
X0045737Y0021600D01*
X0038237Y0021600D01*
X0033237Y0021600D01*
X0025737Y0021600D01*
X0023237Y0021600D01*
X0013862Y0021600D01*
D23*
X0016674Y0021600D01*
X0013862Y0018788D01*
X0013862Y0024412D01*
X0016674Y0021600D01*
X0015876Y0022399D02*
X0013862Y0022399D01*
X0013862Y0023197D02*
X0015077Y0023197D01*
X0014279Y0023996D02*
X0013862Y0023996D01*
X0013862Y0020801D02*
X0015876Y0020801D01*
X0015077Y0020003D02*
X0013862Y0020003D01*
X0013862Y0019204D02*
X0014279Y0019204D01*
X0020737Y0021600D02*
X0025112Y0021600D01*
X0020737Y0021600D01*
X0022924Y0023787D01*
X0025112Y0021600D01*
X0025412Y0021275D02*
X0025737Y0021600D01*
X0025412Y0021275D02*
X0025412Y0010183D01*
X0027971Y0010183D01*
X0033089Y0010183D02*
X0033089Y0021452D01*
X0033237Y0021600D01*
X0033089Y0021748D01*
X0033089Y0033017D01*
X0035648Y0033017D01*
X0032924Y0023787D02*
X0035112Y0021600D01*
X0030737Y0021600D01*
X0032924Y0019413D01*
X0035112Y0021600D01*
X0030737Y0021600D01*
X0035112Y0021600D01*
X0036049Y0021600D02*
X0040424Y0021600D01*
X0038237Y0019413D01*
X0036049Y0021600D01*
X0036848Y0020801D02*
X0039626Y0020801D01*
X0038827Y0020003D02*
X0037646Y0020003D01*
X0034313Y0020801D02*
X0031535Y0020801D01*
X0032334Y0020003D02*
X0033515Y0020003D01*
X0034313Y0022399D02*
X0031535Y0022399D01*
X0032334Y0023197D02*
X0033515Y0023197D01*
X0032924Y0023787D02*
X0030737Y0021600D01*
X0027612Y0021600D02*
X0023237Y0021600D01*
X0025424Y0019413D01*
X0027612Y0021600D01*
X0026813Y0020801D02*
X0024035Y0020801D01*
X0024834Y0020003D02*
X0026015Y0020003D01*
X0024313Y0022399D02*
X0021535Y0022399D01*
X0022334Y0023197D02*
X0023515Y0023197D01*
X0022853Y0021984D02*
X0023237Y0021600D01*
X0022853Y0021984D02*
X0022853Y0033017D01*
X0035648Y0010183D02*
X0035648Y0006064D01*
X0036674Y0005038D01*
X0075112Y0005038D01*
X0076987Y0006912D01*
X0080424Y0006912D01*
X0080424Y0011912D02*
X0076362Y0011912D01*
X0071049Y0006600D01*
X0049487Y0006600D01*
X0048444Y0007643D01*
X0048444Y0010183D01*
X0051003Y0010183D02*
X0051003Y0013741D01*
X0054174Y0016913D01*
X0071674Y0016913D01*
X0076674Y0021912D01*
X0080424Y0021912D01*
X0080424Y0016913D02*
X0076362Y0016913D01*
X0074174Y0014725D01*
X0055424Y0014725D01*
X0053562Y0012862D01*
X0053562Y0010183D01*
X0045885Y0010183D02*
X0045885Y0021600D01*
X0045737Y0021600D01*
X0044348Y0020801D02*
X0047126Y0020801D01*
X0046327Y0020003D02*
X0045146Y0020003D01*
X0045737Y0019413D02*
X0043549Y0021600D01*
X0047924Y0021600D01*
X0045737Y0019413D01*
X0047924Y0021600D02*
X0043549Y0021600D01*
X0047924Y0021600D01*
X0045737Y0023787D01*
X0043549Y0021600D01*
X0044348Y0022399D02*
X0047126Y0022399D01*
X0046327Y0023197D02*
X0045146Y0023197D01*
X0045885Y0010183D02*
X0043325Y0010183D01*
X0056121Y0033017D02*
X0056121Y0035421D01*
X0057299Y0036600D01*
X0071987Y0036600D01*
X0073437Y0035150D01*
X0073437Y0027963D01*
X0074487Y0026912D01*
X0080424Y0026912D01*
D24*
X0062924Y0080350D02*
X0062924Y0081850D01*
M02*
