G75*
%MOIN*%
%OFA0B0*%
%FSLAX25Y25*%
%IPPOS*%
%LPD*%
%AMOC8*
5,1,8,0,0,1.08239X$1,22.5*
%
%ADD10C,0.00000*%
%ADD11C,0.00500*%
%ADD12C,0.00600*%
%ADD13C,0.00800*%
%ADD14C,0.02300*%
D10*
X0008237Y0004725D02*
X0009487Y0003475D01*
X0083549Y0003475D01*
X0084799Y0004725D01*
X0084799Y0104100D01*
X0083549Y0105350D01*
X0043549Y0105350D01*
X0042299Y0106600D01*
X0042299Y0107850D01*
X0041049Y0109100D01*
X0009487Y0109100D01*
X0008237Y0107850D01*
X0008237Y0004725D01*
X0059774Y0106472D02*
X0059776Y0106584D01*
X0059782Y0106695D01*
X0059792Y0106807D01*
X0059806Y0106918D01*
X0059823Y0107028D01*
X0059845Y0107138D01*
X0059871Y0107247D01*
X0059900Y0107355D01*
X0059933Y0107461D01*
X0059970Y0107567D01*
X0060011Y0107671D01*
X0060056Y0107774D01*
X0060104Y0107875D01*
X0060155Y0107974D01*
X0060210Y0108071D01*
X0060269Y0108166D01*
X0060330Y0108260D01*
X0060395Y0108351D01*
X0060464Y0108439D01*
X0060535Y0108525D01*
X0060609Y0108609D01*
X0060687Y0108689D01*
X0060767Y0108767D01*
X0060850Y0108843D01*
X0060935Y0108915D01*
X0061023Y0108984D01*
X0061113Y0109050D01*
X0061206Y0109112D01*
X0061301Y0109172D01*
X0061398Y0109228D01*
X0061496Y0109280D01*
X0061597Y0109329D01*
X0061699Y0109374D01*
X0061803Y0109416D01*
X0061908Y0109454D01*
X0062015Y0109488D01*
X0062122Y0109518D01*
X0062231Y0109545D01*
X0062340Y0109567D01*
X0062451Y0109586D01*
X0062561Y0109601D01*
X0062673Y0109612D01*
X0062784Y0109619D01*
X0062896Y0109622D01*
X0063008Y0109621D01*
X0063120Y0109616D01*
X0063231Y0109607D01*
X0063342Y0109594D01*
X0063453Y0109577D01*
X0063563Y0109557D01*
X0063672Y0109532D01*
X0063780Y0109504D01*
X0063887Y0109471D01*
X0063993Y0109435D01*
X0064097Y0109395D01*
X0064200Y0109352D01*
X0064302Y0109305D01*
X0064401Y0109254D01*
X0064499Y0109200D01*
X0064595Y0109142D01*
X0064689Y0109081D01*
X0064780Y0109017D01*
X0064869Y0108950D01*
X0064956Y0108879D01*
X0065040Y0108805D01*
X0065122Y0108729D01*
X0065200Y0108649D01*
X0065276Y0108567D01*
X0065349Y0108482D01*
X0065419Y0108395D01*
X0065485Y0108305D01*
X0065549Y0108213D01*
X0065609Y0108119D01*
X0065666Y0108023D01*
X0065719Y0107924D01*
X0065769Y0107824D01*
X0065815Y0107723D01*
X0065858Y0107619D01*
X0065897Y0107514D01*
X0065932Y0107408D01*
X0065963Y0107301D01*
X0065991Y0107192D01*
X0066014Y0107083D01*
X0066034Y0106973D01*
X0066050Y0106862D01*
X0066062Y0106751D01*
X0066070Y0106640D01*
X0066074Y0106528D01*
X0066074Y0106416D01*
X0066070Y0106304D01*
X0066062Y0106193D01*
X0066050Y0106082D01*
X0066034Y0105971D01*
X0066014Y0105861D01*
X0065991Y0105752D01*
X0065963Y0105643D01*
X0065932Y0105536D01*
X0065897Y0105430D01*
X0065858Y0105325D01*
X0065815Y0105221D01*
X0065769Y0105120D01*
X0065719Y0105020D01*
X0065666Y0104921D01*
X0065609Y0104825D01*
X0065549Y0104731D01*
X0065485Y0104639D01*
X0065419Y0104549D01*
X0065349Y0104462D01*
X0065276Y0104377D01*
X0065200Y0104295D01*
X0065122Y0104215D01*
X0065040Y0104139D01*
X0064956Y0104065D01*
X0064869Y0103994D01*
X0064780Y0103927D01*
X0064689Y0103863D01*
X0064595Y0103802D01*
X0064499Y0103744D01*
X0064401Y0103690D01*
X0064302Y0103639D01*
X0064200Y0103592D01*
X0064097Y0103549D01*
X0063993Y0103509D01*
X0063887Y0103473D01*
X0063780Y0103440D01*
X0063672Y0103412D01*
X0063563Y0103387D01*
X0063453Y0103367D01*
X0063342Y0103350D01*
X0063231Y0103337D01*
X0063120Y0103328D01*
X0063008Y0103323D01*
X0062896Y0103322D01*
X0062784Y0103325D01*
X0062673Y0103332D01*
X0062561Y0103343D01*
X0062451Y0103358D01*
X0062340Y0103377D01*
X0062231Y0103399D01*
X0062122Y0103426D01*
X0062015Y0103456D01*
X0061908Y0103490D01*
X0061803Y0103528D01*
X0061699Y0103570D01*
X0061597Y0103615D01*
X0061496Y0103664D01*
X0061398Y0103716D01*
X0061301Y0103772D01*
X0061206Y0103832D01*
X0061113Y0103894D01*
X0061023Y0103960D01*
X0060935Y0104029D01*
X0060850Y0104101D01*
X0060767Y0104177D01*
X0060687Y0104255D01*
X0060609Y0104335D01*
X0060535Y0104419D01*
X0060464Y0104505D01*
X0060395Y0104593D01*
X0060330Y0104684D01*
X0060269Y0104778D01*
X0060210Y0104873D01*
X0060155Y0104970D01*
X0060104Y0105069D01*
X0060056Y0105170D01*
X0060011Y0105273D01*
X0059970Y0105377D01*
X0059933Y0105483D01*
X0059900Y0105589D01*
X0059871Y0105697D01*
X0059845Y0105806D01*
X0059823Y0105916D01*
X0059806Y0106026D01*
X0059792Y0106137D01*
X0059782Y0106249D01*
X0059776Y0106360D01*
X0059774Y0106472D01*
D11*
X0059793Y0095765D02*
X0058893Y0095765D01*
X0058442Y0095314D01*
X0058442Y0093513D01*
X0060244Y0095314D01*
X0060244Y0093513D01*
X0059793Y0093062D01*
X0058893Y0093062D01*
X0058442Y0093513D01*
X0057297Y0094414D02*
X0055496Y0094414D01*
X0054351Y0095765D02*
X0053450Y0095765D01*
X0053900Y0095765D02*
X0053900Y0093513D01*
X0053450Y0093062D01*
X0052999Y0093062D01*
X0052549Y0093513D01*
X0051404Y0093513D02*
X0050954Y0093062D01*
X0050053Y0093062D01*
X0049603Y0093513D01*
X0049603Y0095314D01*
X0050053Y0095765D01*
X0050954Y0095765D01*
X0051404Y0095314D01*
X0048458Y0095314D02*
X0048458Y0094414D01*
X0048007Y0093963D01*
X0046656Y0093963D01*
X0046656Y0093062D02*
X0046656Y0095765D01*
X0048007Y0095765D01*
X0048458Y0095314D01*
X0047557Y0093963D02*
X0048458Y0093062D01*
X0059793Y0095765D02*
X0060244Y0095314D01*
X0061389Y0094864D02*
X0062289Y0095765D01*
X0062289Y0093062D01*
X0061389Y0093062D02*
X0063190Y0093062D01*
X0064335Y0093062D02*
X0066137Y0095765D01*
X0067282Y0094414D02*
X0069083Y0094414D01*
X0070228Y0094864D02*
X0070679Y0094414D01*
X0071579Y0094414D01*
X0072030Y0093963D01*
X0072030Y0093513D01*
X0071579Y0093062D01*
X0070679Y0093062D01*
X0070228Y0093513D01*
X0070228Y0094864D02*
X0070228Y0095314D01*
X0070679Y0095765D01*
X0071579Y0095765D01*
X0072030Y0095314D01*
X0073175Y0095765D02*
X0073175Y0093062D01*
X0074075Y0094864D02*
X0074976Y0095765D01*
X0074976Y0093062D01*
X0074075Y0094864D02*
X0073175Y0095765D01*
X0076121Y0095765D02*
X0077923Y0095765D01*
X0077022Y0095765D02*
X0077022Y0093062D01*
X0066137Y0093062D02*
X0064335Y0095765D01*
X0068549Y0074300D02*
X0031049Y0074300D01*
X0031049Y0038900D01*
X0068549Y0038900D01*
X0068549Y0074300D01*
X0078097Y0067743D02*
X0078998Y0068644D01*
X0079899Y0068644D01*
X0080799Y0067743D01*
X0081250Y0069708D02*
X0081250Y0071509D01*
X0078097Y0066598D02*
X0080799Y0064797D01*
X0081250Y0063652D02*
X0081250Y0061850D01*
X0081250Y0060705D02*
X0081250Y0058904D01*
X0079899Y0057840D02*
X0080799Y0056940D01*
X0079899Y0057840D02*
X0078998Y0057840D01*
X0078097Y0056940D01*
X0078097Y0055795D02*
X0080799Y0053993D01*
X0081250Y0052848D02*
X0081250Y0051047D01*
X0081250Y0049902D02*
X0081250Y0048100D01*
X0076981Y0040490D02*
X0075630Y0040490D01*
X0075630Y0037788D01*
X0076981Y0037788D01*
X0077431Y0038238D01*
X0077431Y0040039D01*
X0076981Y0040490D01*
X0074485Y0040490D02*
X0074485Y0037788D01*
X0072683Y0040490D01*
X0072683Y0037788D01*
X0071538Y0038238D02*
X0071088Y0037788D01*
X0070187Y0037788D01*
X0069737Y0038238D01*
X0069737Y0040039D01*
X0070187Y0040490D01*
X0071088Y0040490D01*
X0071538Y0040039D01*
X0071538Y0039139D02*
X0070638Y0039139D01*
X0071538Y0039139D02*
X0071538Y0038238D01*
X0067297Y0034727D02*
X0067297Y0034277D01*
X0065496Y0032475D01*
X0067297Y0032475D01*
X0067297Y0034727D02*
X0066847Y0035177D01*
X0065946Y0035177D01*
X0065496Y0034727D01*
X0064351Y0034727D02*
X0063901Y0035177D01*
X0063000Y0035177D01*
X0062549Y0034727D01*
X0062549Y0032925D01*
X0063000Y0032475D01*
X0063901Y0032475D01*
X0064351Y0032925D01*
X0073799Y0027402D02*
X0074700Y0028302D01*
X0074700Y0025600D01*
X0073799Y0025600D02*
X0075601Y0025600D01*
X0075151Y0023302D02*
X0074250Y0023302D01*
X0073799Y0022852D01*
X0075151Y0023302D02*
X0075601Y0022852D01*
X0075601Y0022402D01*
X0073799Y0020600D01*
X0075601Y0020600D01*
X0075151Y0018302D02*
X0074250Y0018302D01*
X0073799Y0017852D01*
X0074700Y0016951D02*
X0075151Y0016951D01*
X0075601Y0016501D01*
X0075601Y0016050D01*
X0075151Y0015600D01*
X0074250Y0015600D01*
X0073799Y0016050D01*
X0075151Y0016951D02*
X0075601Y0017402D01*
X0075601Y0017852D01*
X0075151Y0018302D01*
X0075151Y0013302D02*
X0073799Y0011951D01*
X0075601Y0011951D01*
X0075151Y0010600D02*
X0075151Y0013302D01*
X0075288Y0008302D02*
X0073487Y0008302D01*
X0073487Y0006951D01*
X0074388Y0007402D01*
X0074838Y0007402D01*
X0075288Y0006951D01*
X0075288Y0006050D01*
X0074838Y0005600D01*
X0073937Y0005600D01*
X0073487Y0006050D01*
X0059704Y0054312D02*
X0058804Y0054312D01*
X0058353Y0054763D01*
X0058353Y0056564D01*
X0058804Y0057015D01*
X0059704Y0057015D01*
X0060155Y0056564D01*
X0060155Y0054763D02*
X0059704Y0054312D01*
X0056758Y0054763D02*
X0056758Y0057015D01*
X0057208Y0057015D02*
X0056307Y0057015D01*
X0056758Y0054763D02*
X0056307Y0054312D01*
X0055857Y0054312D01*
X0055407Y0054763D01*
X0054262Y0054312D02*
X0052460Y0054312D01*
X0053361Y0054312D02*
X0053361Y0057015D01*
X0052460Y0056114D01*
X0051315Y0056564D02*
X0049514Y0054763D01*
X0049964Y0054312D01*
X0050865Y0054312D01*
X0051315Y0054763D01*
X0051315Y0056564D01*
X0050865Y0057015D01*
X0049964Y0057015D01*
X0049514Y0056564D01*
X0049514Y0054763D01*
X0048369Y0054312D02*
X0046567Y0054312D01*
X0047468Y0054312D02*
X0047468Y0057015D01*
X0046567Y0056114D01*
X0045422Y0056114D02*
X0045422Y0054312D01*
X0045422Y0055664D02*
X0043621Y0055664D01*
X0043621Y0056114D02*
X0043621Y0054312D01*
X0042476Y0054763D02*
X0042476Y0056564D01*
X0042025Y0057015D01*
X0040674Y0057015D01*
X0040674Y0054312D01*
X0042025Y0054312D01*
X0042476Y0054763D01*
X0043621Y0056114D02*
X0044521Y0057015D01*
X0045422Y0056114D01*
X0023856Y0079038D02*
X0024306Y0079488D01*
X0024306Y0081289D01*
X0023856Y0081740D01*
X0022505Y0081740D01*
X0022505Y0079038D01*
X0023856Y0079038D01*
X0021360Y0079038D02*
X0021360Y0081740D01*
X0019558Y0081740D02*
X0021360Y0079038D01*
X0019558Y0079038D02*
X0019558Y0081740D01*
X0018413Y0081289D02*
X0017963Y0081740D01*
X0017062Y0081740D01*
X0016612Y0081289D01*
X0016612Y0079488D01*
X0017062Y0079038D01*
X0017963Y0079038D01*
X0018413Y0079488D01*
X0018413Y0080389D01*
X0017513Y0080389D01*
X0017647Y0087199D02*
X0018097Y0087199D01*
X0018547Y0087650D01*
X0018547Y0089902D01*
X0016746Y0089902D02*
X0016746Y0088550D01*
X0017196Y0088100D01*
X0018547Y0088100D01*
X0015601Y0088550D02*
X0015151Y0088100D01*
X0013799Y0088100D01*
X0013799Y0090802D01*
X0013799Y0089902D02*
X0015151Y0089902D01*
X0015601Y0089451D01*
X0015601Y0088550D01*
X0015764Y0092900D02*
X0015764Y0094702D01*
X0017115Y0094702D01*
X0017565Y0094251D01*
X0017565Y0092900D01*
X0018710Y0092900D02*
X0020061Y0092900D01*
X0020512Y0093350D01*
X0020061Y0093801D01*
X0019161Y0093801D01*
X0018710Y0094251D01*
X0019161Y0094702D01*
X0020512Y0094702D01*
X0021657Y0094702D02*
X0023008Y0094702D01*
X0023458Y0094251D01*
X0023458Y0093350D01*
X0023008Y0092900D01*
X0021657Y0092900D01*
X0021657Y0091999D02*
X0021657Y0094702D01*
X0024603Y0094702D02*
X0025054Y0094702D01*
X0025054Y0092900D01*
X0025504Y0092900D02*
X0024603Y0092900D01*
X0024441Y0090802D02*
X0022639Y0090802D01*
X0022639Y0088100D01*
X0022639Y0089451D02*
X0023540Y0089451D01*
X0025585Y0089451D02*
X0026937Y0089451D01*
X0027387Y0089001D01*
X0027387Y0088550D01*
X0026937Y0088100D01*
X0025585Y0088100D01*
X0025585Y0090802D01*
X0026937Y0090802D01*
X0027387Y0090352D01*
X0027387Y0089902D01*
X0026937Y0089451D01*
X0028532Y0088100D02*
X0030334Y0090802D01*
X0029514Y0092900D02*
X0029514Y0094702D01*
X0029514Y0093801D02*
X0030415Y0094702D01*
X0030865Y0094702D01*
X0031970Y0094251D02*
X0031970Y0093350D01*
X0032420Y0092900D01*
X0033321Y0092900D01*
X0033771Y0093801D02*
X0031970Y0093801D01*
X0031970Y0094251D02*
X0032420Y0094702D01*
X0033321Y0094702D01*
X0033771Y0094251D01*
X0033771Y0093801D01*
X0034916Y0094251D02*
X0035366Y0094702D01*
X0036718Y0094702D01*
X0036718Y0095602D02*
X0036718Y0092900D01*
X0035366Y0092900D01*
X0034916Y0093350D01*
X0034916Y0094251D01*
X0028532Y0090802D02*
X0030334Y0088100D01*
X0027919Y0092900D02*
X0027018Y0092900D01*
X0026568Y0093350D01*
X0026568Y0094251D01*
X0027018Y0094702D01*
X0027919Y0094702D01*
X0028369Y0094251D01*
X0028369Y0093801D01*
X0026568Y0093801D01*
X0025054Y0095602D02*
X0025054Y0096053D01*
X0014250Y0096053D02*
X0014250Y0095602D01*
X0014250Y0094702D02*
X0013799Y0094702D01*
X0014250Y0094702D02*
X0014250Y0092900D01*
X0014700Y0092900D02*
X0013799Y0092900D01*
X0014384Y0072677D02*
X0013933Y0072227D01*
X0014384Y0072677D02*
X0015285Y0072677D01*
X0015735Y0072227D01*
X0015735Y0071777D01*
X0015285Y0071326D01*
X0015735Y0070876D01*
X0015735Y0070425D01*
X0015285Y0069975D01*
X0014384Y0069975D01*
X0013933Y0070425D01*
X0012788Y0070425D02*
X0012338Y0069975D01*
X0011437Y0069975D01*
X0010987Y0070425D01*
X0010987Y0072227D01*
X0011437Y0072677D01*
X0012338Y0072677D01*
X0012788Y0072227D01*
X0014834Y0071326D02*
X0015285Y0071326D01*
X0015285Y0062677D02*
X0014384Y0062677D01*
X0013933Y0062227D01*
X0012788Y0062227D02*
X0012788Y0061326D01*
X0012338Y0060876D01*
X0010987Y0060876D01*
X0011888Y0060876D02*
X0012788Y0059975D01*
X0013933Y0059975D02*
X0015735Y0061777D01*
X0015735Y0062227D01*
X0015285Y0062677D01*
X0015735Y0059975D02*
X0013933Y0059975D01*
X0012788Y0062227D02*
X0012338Y0062677D01*
X0010987Y0062677D01*
X0010987Y0059975D01*
X0010987Y0052990D02*
X0012338Y0052990D01*
X0012788Y0052539D01*
X0012788Y0051639D01*
X0012338Y0051188D01*
X0010987Y0051188D01*
X0010987Y0050287D02*
X0010987Y0052990D01*
X0011888Y0051188D02*
X0012788Y0050287D01*
X0013933Y0050287D02*
X0015735Y0050287D01*
X0014834Y0050287D02*
X0014834Y0052990D01*
X0013933Y0052089D01*
X0015147Y0041115D02*
X0015147Y0038413D01*
X0016047Y0038413D02*
X0014246Y0038413D01*
X0013101Y0038863D02*
X0012651Y0038413D01*
X0011750Y0038413D01*
X0011299Y0038863D01*
X0011299Y0040664D01*
X0011750Y0041115D01*
X0012651Y0041115D01*
X0013101Y0040664D01*
X0014246Y0040214D02*
X0015147Y0041115D01*
X0018924Y0024098D02*
X0018924Y0022297D01*
X0018924Y0023197D02*
X0016222Y0023197D01*
X0017123Y0022297D01*
X0016222Y0021152D02*
X0018474Y0021152D01*
X0018924Y0020701D01*
X0018924Y0019800D01*
X0018474Y0019350D01*
X0016222Y0019350D01*
X0016612Y0007365D02*
X0016612Y0005563D01*
X0017513Y0004663D01*
X0018413Y0005563D01*
X0018413Y0007365D01*
X0019558Y0006014D02*
X0019558Y0005113D01*
X0020009Y0004663D01*
X0021360Y0004663D01*
X0022505Y0005113D02*
X0022505Y0006014D01*
X0022955Y0006464D01*
X0024306Y0006464D01*
X0024306Y0004663D02*
X0022955Y0004663D01*
X0022505Y0005113D01*
X0021360Y0006464D02*
X0020009Y0006464D01*
X0019558Y0006014D01*
D12*
X0042924Y0082850D02*
X0042924Y0088362D01*
X0042924Y0092299D02*
X0042924Y0097811D01*
X0042924Y0101748D02*
X0042924Y0107259D01*
X0046586Y0107259D01*
X0046586Y0110586D01*
X0046586Y0114523D02*
X0046586Y0117850D01*
X0039407Y0102053D02*
X0038273Y0102053D01*
X0037706Y0101486D01*
X0037706Y0100919D01*
X0038273Y0100351D01*
X0039407Y0100351D01*
X0039974Y0099784D01*
X0039974Y0099217D01*
X0039407Y0098650D01*
X0038273Y0098650D01*
X0037706Y0099217D01*
X0037706Y0099784D01*
X0038273Y0100351D01*
X0039407Y0100351D02*
X0039974Y0100919D01*
X0039974Y0101486D01*
X0039407Y0102053D01*
X0036291Y0101486D02*
X0036291Y0100919D01*
X0035724Y0100351D01*
X0036291Y0099784D01*
X0036291Y0099217D01*
X0035724Y0098650D01*
X0034590Y0098650D01*
X0034023Y0099217D01*
X0032608Y0099217D02*
X0032608Y0101486D01*
X0032041Y0102053D01*
X0030907Y0102053D01*
X0030339Y0101486D01*
X0030339Y0100919D01*
X0030907Y0100351D01*
X0032608Y0100351D01*
X0032608Y0099217D02*
X0032041Y0098650D01*
X0030907Y0098650D01*
X0030339Y0099217D01*
X0028925Y0100351D02*
X0026656Y0100351D01*
X0028358Y0102053D01*
X0028358Y0098650D01*
X0025335Y0098650D02*
X0024201Y0098650D01*
X0024768Y0098650D02*
X0024768Y0100919D01*
X0024201Y0100919D01*
X0024768Y0102053D02*
X0024768Y0102620D01*
X0022880Y0100919D02*
X0021745Y0100919D01*
X0022313Y0101486D02*
X0022313Y0099217D01*
X0022880Y0098650D01*
X0020378Y0100919D02*
X0019810Y0100919D01*
X0018676Y0099784D01*
X0018676Y0098650D02*
X0018676Y0100919D01*
X0017262Y0100351D02*
X0017262Y0099217D01*
X0016694Y0098650D01*
X0015560Y0098650D01*
X0014993Y0099217D01*
X0014993Y0100351D01*
X0015560Y0100919D01*
X0016694Y0100919D01*
X0017262Y0100351D01*
X0013578Y0100351D02*
X0013578Y0099217D01*
X0013011Y0098650D01*
X0011310Y0098650D01*
X0011310Y0102053D01*
X0011310Y0100919D02*
X0013011Y0100919D01*
X0013578Y0100351D01*
X0034023Y0101486D02*
X0034590Y0102053D01*
X0035724Y0102053D01*
X0036291Y0101486D01*
X0035724Y0100351D02*
X0035157Y0100351D01*
X0079263Y0107259D02*
X0079263Y0110586D01*
X0079263Y0107259D02*
X0082924Y0107259D01*
X0082924Y0101748D01*
X0082924Y0097811D02*
X0082924Y0092299D01*
X0082924Y0088362D02*
X0082924Y0082850D01*
X0079263Y0114523D02*
X0079263Y0117850D01*
D13*
X0058385Y0030065D02*
X0020589Y0030065D01*
X0020589Y0013135D01*
X0058385Y0013135D01*
X0058385Y0030065D01*
X0023148Y0016482D02*
X0023150Y0016553D01*
X0023156Y0016624D01*
X0023166Y0016695D01*
X0023180Y0016764D01*
X0023197Y0016833D01*
X0023219Y0016901D01*
X0023244Y0016968D01*
X0023273Y0017033D01*
X0023305Y0017096D01*
X0023341Y0017158D01*
X0023380Y0017217D01*
X0023423Y0017274D01*
X0023468Y0017329D01*
X0023517Y0017381D01*
X0023568Y0017430D01*
X0023622Y0017476D01*
X0023679Y0017520D01*
X0023737Y0017560D01*
X0023798Y0017596D01*
X0023861Y0017630D01*
X0023926Y0017659D01*
X0023992Y0017685D01*
X0024060Y0017708D01*
X0024128Y0017726D01*
X0024198Y0017741D01*
X0024268Y0017752D01*
X0024339Y0017759D01*
X0024410Y0017762D01*
X0024481Y0017761D01*
X0024552Y0017756D01*
X0024623Y0017747D01*
X0024693Y0017734D01*
X0024762Y0017718D01*
X0024830Y0017697D01*
X0024897Y0017673D01*
X0024963Y0017645D01*
X0025026Y0017613D01*
X0025088Y0017578D01*
X0025148Y0017540D01*
X0025206Y0017498D01*
X0025261Y0017454D01*
X0025314Y0017406D01*
X0025364Y0017355D01*
X0025411Y0017302D01*
X0025455Y0017246D01*
X0025496Y0017188D01*
X0025534Y0017127D01*
X0025568Y0017065D01*
X0025598Y0017000D01*
X0025625Y0016935D01*
X0025649Y0016867D01*
X0025668Y0016799D01*
X0025684Y0016730D01*
X0025696Y0016659D01*
X0025704Y0016589D01*
X0025708Y0016518D01*
X0025708Y0016446D01*
X0025704Y0016375D01*
X0025696Y0016305D01*
X0025684Y0016234D01*
X0025668Y0016165D01*
X0025649Y0016097D01*
X0025625Y0016029D01*
X0025598Y0015964D01*
X0025568Y0015899D01*
X0025534Y0015837D01*
X0025496Y0015776D01*
X0025455Y0015718D01*
X0025411Y0015662D01*
X0025364Y0015609D01*
X0025314Y0015558D01*
X0025261Y0015510D01*
X0025206Y0015466D01*
X0025148Y0015424D01*
X0025088Y0015386D01*
X0025026Y0015351D01*
X0024963Y0015319D01*
X0024897Y0015291D01*
X0024830Y0015267D01*
X0024762Y0015246D01*
X0024693Y0015230D01*
X0024623Y0015217D01*
X0024552Y0015208D01*
X0024481Y0015203D01*
X0024410Y0015202D01*
X0024339Y0015205D01*
X0024268Y0015212D01*
X0024198Y0015223D01*
X0024128Y0015238D01*
X0024060Y0015256D01*
X0023992Y0015279D01*
X0023926Y0015305D01*
X0023861Y0015334D01*
X0023798Y0015368D01*
X0023737Y0015404D01*
X0023679Y0015444D01*
X0023622Y0015488D01*
X0023568Y0015534D01*
X0023517Y0015583D01*
X0023468Y0015635D01*
X0023423Y0015690D01*
X0023380Y0015747D01*
X0023341Y0015806D01*
X0023305Y0015868D01*
X0023273Y0015931D01*
X0023244Y0015996D01*
X0023219Y0016063D01*
X0023197Y0016131D01*
X0023180Y0016200D01*
X0023166Y0016269D01*
X0023156Y0016340D01*
X0023150Y0016411D01*
X0023148Y0016482D01*
D14*
X0035699Y0068100D02*
X0035701Y0068166D01*
X0035707Y0068231D01*
X0035717Y0068296D01*
X0035730Y0068361D01*
X0035748Y0068424D01*
X0035769Y0068487D01*
X0035794Y0068547D01*
X0035823Y0068607D01*
X0035855Y0068664D01*
X0035890Y0068720D01*
X0035929Y0068773D01*
X0035971Y0068824D01*
X0036015Y0068872D01*
X0036063Y0068917D01*
X0036113Y0068960D01*
X0036166Y0068999D01*
X0036221Y0069036D01*
X0036278Y0069069D01*
X0036337Y0069098D01*
X0036397Y0069124D01*
X0036459Y0069146D01*
X0036522Y0069165D01*
X0036586Y0069179D01*
X0036651Y0069190D01*
X0036717Y0069197D01*
X0036783Y0069200D01*
X0036848Y0069199D01*
X0036914Y0069194D01*
X0036979Y0069185D01*
X0037044Y0069172D01*
X0037107Y0069156D01*
X0037170Y0069136D01*
X0037231Y0069111D01*
X0037291Y0069084D01*
X0037349Y0069053D01*
X0037405Y0069018D01*
X0037459Y0068980D01*
X0037510Y0068939D01*
X0037559Y0068895D01*
X0037605Y0068848D01*
X0037649Y0068799D01*
X0037689Y0068747D01*
X0037726Y0068692D01*
X0037760Y0068636D01*
X0037790Y0068577D01*
X0037817Y0068517D01*
X0037840Y0068456D01*
X0037859Y0068393D01*
X0037875Y0068329D01*
X0037887Y0068264D01*
X0037895Y0068199D01*
X0037899Y0068133D01*
X0037899Y0068067D01*
X0037895Y0068001D01*
X0037887Y0067936D01*
X0037875Y0067871D01*
X0037859Y0067807D01*
X0037840Y0067744D01*
X0037817Y0067683D01*
X0037790Y0067623D01*
X0037760Y0067564D01*
X0037726Y0067508D01*
X0037689Y0067453D01*
X0037649Y0067401D01*
X0037605Y0067352D01*
X0037559Y0067305D01*
X0037510Y0067261D01*
X0037459Y0067220D01*
X0037405Y0067182D01*
X0037349Y0067147D01*
X0037291Y0067116D01*
X0037231Y0067089D01*
X0037170Y0067064D01*
X0037107Y0067044D01*
X0037044Y0067028D01*
X0036979Y0067015D01*
X0036914Y0067006D01*
X0036848Y0067001D01*
X0036783Y0067000D01*
X0036717Y0067003D01*
X0036651Y0067010D01*
X0036586Y0067021D01*
X0036522Y0067035D01*
X0036459Y0067054D01*
X0036397Y0067076D01*
X0036337Y0067102D01*
X0036278Y0067131D01*
X0036221Y0067164D01*
X0036166Y0067201D01*
X0036113Y0067240D01*
X0036063Y0067283D01*
X0036015Y0067328D01*
X0035971Y0067376D01*
X0035929Y0067427D01*
X0035890Y0067480D01*
X0035855Y0067536D01*
X0035823Y0067593D01*
X0035794Y0067653D01*
X0035769Y0067713D01*
X0035748Y0067776D01*
X0035730Y0067839D01*
X0035717Y0067904D01*
X0035707Y0067969D01*
X0035701Y0068034D01*
X0035699Y0068100D01*
M02*
